<svg width="148" height="154" viewBox="0 0 148 154" fill="none" xmlns="http://www.w3.org/2000/svg">
<path fill-rule="evenodd" clip-rule="evenodd" d="M73.824 68.736C78.72 68.736 82.752 72.768 82.752 77.664C82.752 82.656 78.72 86.592 73.824 86.592C68.928 86.592 64.896 82.656 64.896 77.664C64.896 72.768 68.928 68.736 73.824 68.736ZM73.824 73.728C76.032 73.728 77.76 75.456 77.76 77.664C77.76 79.872 76.032 81.696 73.824 81.696C71.616 81.696 69.792 79.872 69.792 77.664C69.792 75.456 71.616 73.728 73.824 73.728Z" fill="#004D71"/>
<path d="M94.4639 59.04C94.3679 59.136 94.3679 59.232 94.3679 59.328C94.3679 59.52 94.4639 59.616 94.6559 59.808C94.6559 59.808 94.6559 59.808 94.7519 59.904C94.9439 60 95.1359 60.192 95.3279 60.192C95.5199 60.192 95.6159 60.192 95.7119 60.192V60.096C95.8079 60 95.9039 59.808 95.8079 59.616C95.7119 59.328 95.5199 59.136 95.3279 58.848C95.2319 58.848 95.2319 58.752 95.1359 58.656C94.9439 58.272 94.8479 57.888 94.8479 57.504C94.8479 57.12 95.0399 56.832 95.3279 56.544C95.4239 56.544 95.4239 56.448 95.5199 56.448C95.9039 56.16 96.2879 56.064 96.6719 56.064C97.0559 56.16 97.4399 56.352 97.8239 56.64C98.1119 56.928 98.3999 57.312 98.4959 57.696C98.5919 58.08 98.5919 58.464 98.3999 58.848L97.4399 58.368C97.5359 58.272 97.4399 58.08 97.4399 57.984C97.3439 57.792 97.2479 57.6 97.1519 57.408C96.9599 57.216 96.7679 57.216 96.5759 57.12C96.4799 57.12 96.2879 57.216 96.0959 57.312C96.0959 57.312 96.0959 57.312 96.0959 57.408C95.9999 57.408 95.9039 57.504 95.9039 57.6C95.9039 57.792 95.9039 57.888 96.0959 58.08C96.0959 58.08 96.0959 58.176 96.1919 58.176C96.3839 58.464 96.6719 58.848 96.8639 59.328C96.9599 59.808 96.9599 60.384 96.4799 60.864H96.3839C96.0959 61.248 95.6159 61.344 95.1359 61.248C94.7519 61.152 94.3679 60.96 93.9839 60.672C93.9839 60.576 93.8879 60.576 93.8879 60.48C93.5999 60.288 93.4079 59.904 93.3119 59.424C93.3119 59.136 93.4079 58.752 93.6959 58.368L94.4639 59.04ZM49.8239 57.696C49.9199 57.792 50.1119 57.984 50.2079 58.08C50.5919 58.464 50.9759 58.848 51.3599 59.232C52.1279 59.808 52.8959 60.192 53.3759 59.616C53.7599 59.136 53.7599 58.752 53.5679 58.272C53.2799 57.6 52.6079 56.928 51.4559 55.968L52.2239 55.104C53.4719 56.16 54.2399 57.024 54.5279 57.792C55.0079 58.752 54.8159 59.52 54.1439 60.288C53.0879 61.536 51.8399 60.96 50.6879 60C50.3039 59.616 49.8239 59.232 49.4399 58.848C49.3439 58.752 49.2479 58.56 49.0559 58.464L49.8239 57.696ZM55.6799 57.792L53.0879 53.952L53.8559 53.472L57.8879 54.336L56.3519 51.936L57.3119 51.36L59.4239 54.816L59.8079 55.296L59.0399 55.776L54.9119 54.816L56.6399 57.216L55.6799 57.792ZM59.2319 50.208L61.2479 54.048L60.2879 54.528L58.2719 50.784L59.2319 50.208ZM61.0559 48.96L63.4559 51.648L63.7439 48.192L64.7999 48.288L64.0319 53.376L60.2879 49.728L61.0559 48.96ZM69.4079 47.712C69.2159 47.808 69.0239 47.808 68.8319 47.808C68.0639 48 67.1999 48.096 67.1039 48.384C67.1039 48.672 67.1039 48.864 67.1999 49.152L69.3119 48.672L69.5039 49.728L67.3919 50.112C67.4879 50.304 67.4879 50.496 67.5839 50.688L67.6799 50.976C67.6799 50.976 67.9679 50.976 68.2559 50.88C68.7359 50.88 69.3119 50.688 69.7919 50.496L70.1759 51.552C69.5999 51.648 68.9279 51.84 68.3519 51.936C67.5839 52.032 66.9119 51.936 66.7199 51.36L66.6239 51.072C66.2399 50.016 66.0479 49.44 66.0479 48.384C66.1439 47.136 67.4879 46.944 68.6399 46.752C68.8319 46.752 69.0239 46.752 69.2159 46.656L69.4079 47.712ZM75.4559 51.456C75.1679 50.976 74.8799 50.592 74.6879 50.304C74.4959 50.016 74.3039 49.824 74.1119 49.728C73.7279 49.728 73.3439 49.728 72.9599 49.728H72.8639V51.168H71.8079V47.04V46.56L72.1919 46.464C72.4799 46.464 72.6719 46.368 72.8639 46.368C73.5359 46.272 74.2079 46.368 74.7839 46.464C75.4559 46.656 76.0319 47.136 76.1279 47.808C76.1279 47.904 76.1279 47.904 76.1279 48C76.1279 48 76.1279 48 76.1279 48.096C76.1279 48.576 75.9359 48.96 75.5519 49.248C75.4559 49.248 75.3599 49.344 75.2639 49.44C75.3599 49.44 75.4559 49.536 75.4559 49.632C75.7439 49.92 76.0319 50.4 76.4159 50.976L75.4559 51.456ZM72.8639 47.424V48.672H72.9599C73.3439 48.672 73.8239 48.672 74.2079 48.672H74.3039C74.4959 48.672 74.6879 48.576 74.8799 48.384C74.9759 48.288 75.0719 48.192 75.0719 48.096V48C75.0719 47.808 74.7839 47.616 74.4959 47.52C74.1119 47.424 73.5359 47.424 72.9599 47.424H72.8639ZM78.4319 50.496C78.5279 50.592 78.6239 50.784 78.8159 50.88C79.0079 50.976 79.1999 51.072 79.2959 51.072C79.5839 51.072 79.7759 51.072 79.9679 50.976C80.1599 50.88 80.1599 50.784 80.2559 50.688C80.2559 50.592 80.2559 50.592 80.2559 50.592C80.2559 50.4 80.2559 50.304 80.1599 50.208C80.0639 50.112 79.9679 50.016 79.7759 50.016C79.6799 50.016 79.6799 50.016 79.5839 50.016C79.1039 49.92 78.6239 49.728 78.3359 49.44C78.0479 49.152 77.8559 48.672 77.8559 48.192C77.9519 47.808 78.2399 47.424 78.6239 47.136C78.9119 46.944 79.3919 46.848 79.7759 46.848C80.2559 46.944 80.6399 47.136 80.9279 47.328C81.1199 47.616 81.3119 47.808 81.4079 48.096L80.4479 48.576C80.3519 48.384 80.2559 48.288 80.1599 48.096C80.0639 48 79.8719 47.904 79.6799 47.904C79.4879 47.904 79.2959 48 79.1999 48.096C79.0079 48.192 78.9119 48.288 78.9119 48.288C78.9119 48.48 79.0079 48.576 79.1039 48.672C79.1999 48.768 79.3919 48.864 79.6799 48.96C79.7759 48.96 79.8719 48.96 79.9679 48.96C80.3519 49.056 80.6399 49.248 80.9279 49.44C81.2159 49.728 81.3119 50.112 81.3119 50.592C81.3119 50.688 81.3119 50.784 81.3119 50.88C81.2159 51.36 80.9279 51.648 80.5439 51.84C80.1599 52.128 79.6799 52.224 79.1999 52.128C78.9119 52.128 78.5279 51.936 78.2399 51.744C77.9519 51.552 77.6639 51.264 77.4719 50.976L78.4319 50.496ZM84.2879 48.384L82.8479 52.512L81.8879 52.224L83.2319 48L84.2879 48.384ZM85.1519 53.28L86.7839 50.304L85.6319 49.728L86.1119 48.768L89.3759 50.496L88.8959 51.456L87.7439 50.784L86.1119 53.76L85.1519 53.28ZM90.5279 53.664C90.9119 53.952 91.2959 54.144 91.5839 54.432C91.9679 54.624 92.2559 54.912 92.4479 55.2C92.9279 54.528 93.2159 53.856 92.5439 53.472C91.7759 52.896 91.1039 53.184 90.5279 53.664ZM91.0079 55.296C90.6239 55.008 90.2399 54.72 89.8559 54.528C89.7599 54.624 89.6639 54.72 89.6639 54.816C89.4719 55.104 89.2799 55.296 89.0879 55.488L88.3199 54.816C88.5119 54.624 88.6079 54.432 88.7999 54.24C89.8559 52.8 91.0079 51.072 93.1199 52.512C94.4639 53.472 94.1759 54.624 93.4079 55.776C93.0239 56.256 92.7359 56.64 92.3519 57.12C92.2559 57.312 92.0639 57.408 91.9679 57.6L91.1999 56.928C91.2959 56.736 91.3919 56.544 91.5839 56.448C91.6799 56.256 91.7759 56.16 91.8719 56.064C91.5839 55.776 91.2959 55.488 91.0079 55.296Z" fill="#004D71"/>
<path d="M51.9361 93.312L53.5681 95.136L53.8561 95.616L53.4721 95.904C53.2801 96.096 53.0881 96.288 52.8001 96.48C52.1281 97.056 51.4561 97.632 50.6881 97.92C50.3041 98.016 49.8241 98.016 49.4401 97.824C48.9601 97.728 48.5761 97.344 48.2881 97.056C48.0001 96.672 47.9041 96.192 47.8081 95.808C47.7121 95.232 47.8081 94.752 47.9041 94.368L48.8641 94.752C48.8641 94.944 48.7681 95.232 48.8641 95.616C48.8641 95.904 48.9601 96.192 49.1521 96.384C49.3441 96.576 49.5361 96.768 49.8241 96.864C50.0161 96.96 50.2081 96.96 50.4001 96.864C50.9761 96.672 51.5521 96.192 52.1281 95.616C52.2241 95.616 52.3201 95.52 52.4161 95.424L51.1681 93.984L51.9361 93.312Z" fill="#004D71"/>
<path d="M53.0881 98.208C53.1841 98.112 53.2801 98.112 53.3761 98.016C53.7601 97.632 54.3361 97.344 54.9121 97.344C55.5841 97.248 56.2561 97.44 56.8321 98.112C56.9281 98.112 56.9281 98.208 57.0241 98.304C57.5041 98.976 57.6001 99.552 57.5041 100.128C57.3121 100.896 56.8321 101.472 56.3521 101.952H56.2561C55.8721 102.336 55.2001 102.432 54.6241 102.432C53.9521 102.432 53.2801 102.144 52.8961 101.664C52.8961 101.664 52.8961 101.664 52.8001 101.568C52.4161 101.088 52.2241 100.512 52.2241 99.84C52.3201 99.264 52.5121 98.688 53.0881 98.208ZM54.0481 98.88C53.9521 98.88 53.8561 98.976 53.7601 98.976C53.4721 99.264 53.3761 99.648 53.2801 99.936C53.2801 100.224 53.4721 100.608 53.6641 100.992C53.6641 100.992 53.6641 100.992 53.7601 100.992C53.9521 101.28 54.2401 101.376 54.6241 101.376C55.0081 101.376 55.3921 101.28 55.5841 101.088H55.6801C55.9681 100.8 56.3521 100.416 56.4481 99.936C56.5441 99.648 56.4481 99.36 56.1601 98.976C56.1601 98.88 56.0641 98.88 56.0641 98.784C55.6801 98.496 55.3921 98.304 55.0081 98.4C54.6241 98.4 54.3361 98.592 54.0481 98.88Z" fill="#004D71"/>
<path d="M60.8641 102.24C60.8641 102.144 60.6721 101.856 60.4801 101.664C60.2881 101.472 60.0961 101.376 60.0001 101.376C59.7121 101.28 59.3281 101.376 59.0401 101.472C58.6561 101.664 58.3681 101.952 58.2721 102.336C58.0801 102.72 57.9841 103.2 58.0801 103.68C58.1761 104.064 58.3681 104.352 58.7521 104.64C59.0401 104.736 59.2321 104.832 59.5201 104.832C59.7121 104.928 59.9041 104.928 60.0961 104.832C60.2881 104.64 60.4801 104.352 60.5761 104.064C60.2881 103.872 59.9041 103.776 59.6161 103.584C59.4241 103.584 59.2321 103.488 59.0401 103.392L59.5201 102.432C59.6161 102.432 59.8081 102.528 60.0001 102.624C60.5761 102.816 61.2481 103.104 61.5361 103.392L61.9201 103.584L61.7281 103.968C61.7281 104.064 61.7281 104.064 61.6321 104.16C61.4401 104.736 61.1521 105.408 60.5761 105.696C60.1921 105.984 59.8081 105.984 59.3281 105.888C58.9441 105.888 58.5601 105.696 58.2721 105.504C57.6001 105.12 57.2161 104.544 57.0241 103.968C56.8321 103.296 57.0241 102.528 57.3121 101.856C57.5041 101.28 57.9841 100.896 58.5601 100.608C59.1361 100.32 59.7121 100.128 60.2881 100.32C60.6721 100.416 60.9601 100.608 61.2481 100.896C61.5361 101.184 61.7281 101.568 61.9201 101.952L60.8641 102.24Z" fill="#004D71"/>
<path d="M65.0881 102.72C65.3761 102.816 65.7601 102.912 66.0481 103.008C66.3361 103.2 66.7201 103.296 67.2001 103.392L67.6801 103.488L67.5841 103.968C67.4881 104.64 67.3921 105.216 67.2001 105.696C67.1041 106.176 66.9121 106.656 66.6241 107.136C66.4321 107.52 65.9521 107.808 65.4721 108C64.9921 108.096 64.5121 108.096 64.0321 107.904C63.3601 107.712 62.9761 107.328 62.5921 107.04C62.3041 106.656 62.1121 106.272 62.0161 105.792L63.0721 105.504C63.1681 105.792 63.2641 106.08 63.4561 106.272C63.6481 106.56 63.9361 106.752 64.4161 106.944C64.6081 107.04 64.8961 107.04 65.1841 106.944C65.3761 106.848 65.5681 106.752 65.6641 106.656C65.8561 106.176 66.0481 105.792 66.2401 105.312C66.3361 105.024 66.3361 104.736 66.4321 104.256C66.1441 104.256 65.9521 104.16 65.6641 104.064C65.3761 103.968 64.9921 103.776 64.7041 103.68L65.0881 102.72Z" fill="#004D71"/>
<path d="M69.6961 106.464C70.0801 106.464 70.4641 106.56 70.9441 106.56C71.4241 106.656 71.9041 106.656 72.2881 106.752C72.2881 105.792 72.0961 105.024 71.1361 104.928C70.6561 104.928 70.2721 105.312 69.9841 105.792C69.8881 105.984 69.7921 106.272 69.6961 106.464ZM70.8481 107.616C70.3681 107.616 69.8881 107.52 69.4081 107.52C69.4081 107.712 69.3121 107.904 69.3121 108C69.3121 108.288 69.3121 108.48 69.3121 108.672H68.2561C68.2561 108.384 68.2561 108.192 68.2561 107.904C68.3521 106.944 68.6401 105.984 69.0241 105.312C69.5041 104.448 70.1761 103.872 71.1361 103.872H71.2321C73.6321 104.16 73.4401 106.368 73.3441 108.384C73.2481 108.576 73.2481 108.864 73.2481 109.056L72.1921 108.96C72.1921 108.672 72.1921 108.48 72.2881 108.288C72.2881 108.096 72.2881 108 72.2881 107.808C71.8081 107.712 71.3281 107.712 70.8481 107.616Z" fill="#004D71"/>
<path d="M75.8399 104.448V105.696L78.1439 103.776L78.8159 104.544L77.1839 105.984L79.1999 108L78.4319 108.768L76.3199 106.752L75.9359 107.04L76.0319 108.864H74.9759L74.7839 104.448H75.8399Z" fill="#004D71"/>
<path d="M81.024 107.808C80.736 106.656 80.448 105.696 80.448 104.736C80.544 103.776 81.024 102.912 82.08 102.528C83.136 102.144 83.808 102.528 84.384 103.488C84.864 104.16 85.152 105.216 85.536 106.56L84.48 106.848C84.384 106.464 84.288 106.08 84.192 105.792L81.792 106.56C81.888 106.848 81.888 107.136 81.984 107.52L81.024 107.808ZM81.504 104.832C81.504 105.024 81.504 105.216 81.6 105.504L83.904 104.736C83.712 104.448 83.616 104.256 83.52 104.064C83.232 103.584 82.848 103.392 82.464 103.584C81.792 103.776 81.6 104.256 81.504 104.832Z" fill="#004D71"/>
<path d="M88.0321 105.504L85.8241 102.144L85.5361 101.664L86.0161 101.376C86.2081 101.184 86.4961 101.088 86.6881 100.896C87.2641 100.512 87.7441 100.224 88.3201 99.9359C88.7041 99.6479 89.2801 99.6479 89.7601 99.7439C89.9521 99.8399 90.2401 100.032 90.4321 100.224C90.6241 100.416 90.7201 100.704 90.7201 101.088C90.7201 101.376 90.6241 101.76 90.3361 102.144C90.5281 102.144 90.6241 102.144 90.8161 102.144C91.3921 102.24 91.8721 102.432 92.3521 102.72L91.7761 103.68C91.3921 103.392 91.0081 103.296 90.6241 103.2C90.3361 103.2 89.9521 103.2 89.5681 103.296C89.2801 103.584 88.9921 103.776 88.8001 103.968C88.6081 103.968 88.5121 104.064 88.4161 104.16L88.8961 105.024L88.0321 105.504ZM86.9761 101.952L87.8401 103.296C87.9361 103.2 88.0321 103.104 88.1281 103.008C88.4161 102.912 88.6081 102.72 88.8001 102.432C89.3761 101.856 89.6641 101.376 89.6641 101.088C89.6641 100.992 89.5681 100.896 89.5681 100.896C89.5681 100.8 89.4721 100.8 89.3761 100.8C89.1841 100.704 88.9921 100.8 88.8001 100.896C88.3201 101.088 87.8401 101.472 87.3601 101.76C87.2641 101.856 87.0721 101.952 86.9761 101.952Z" fill="#004D71"/>
<path d="M94.6559 100.8C94.2719 100.224 93.8879 99.648 93.4079 99.168C93.1199 98.88 92.8319 98.496 92.4479 98.208L91.5839 98.976L90.8159 98.208L93.5999 95.808L94.2719 96.576L93.2159 97.536C93.5999 97.824 93.8879 98.112 94.1759 98.496C94.6559 98.976 95.1359 99.552 95.5199 100.128L94.6559 100.8Z" fill="#004D71"/>
<path d="M98.016 97.632C97.824 97.44 97.632 97.344 97.44 97.152C96.192 96.096 94.656 94.848 95.904 92.832C96.96 91.392 98.112 91.68 99.264 92.448C99.648 92.736 99.936 93.024 100.32 93.312C100.608 93.504 100.8 93.696 101.088 93.888L100.512 94.752C100.224 94.56 99.936 94.368 99.648 94.08H99.552L98.016 96.288L98.112 96.384C98.4 96.48 98.592 96.672 98.688 96.864L98.016 97.632ZM96.864 93.408C96.288 94.272 96.672 94.944 97.248 95.52L98.784 93.408C98.688 93.408 98.688 93.408 98.688 93.312C98.016 92.928 97.344 92.64 96.864 93.408Z" fill="#004D71"/>
<path d="M88.896 46.944C89.184 46.752 88.992 46.656 89.184 46.368C89.376 46.176 91.68 43.872 91.776 43.68C92.832 42.432 93.696 41.376 94.464 40.32C95.232 39.168 96 38.016 96.96 36.384C98.016 34.56 99.072 32.736 99.648 30.72C100.128 28.704 100.128 26.496 99.264 23.712C98.688 21.792 97.536 20.352 95.904 19.296C94.272 18.144 92.064 17.376 89.376 16.896C86.208 16.32 83.904 15.552 81.792 14.784C81.024 14.496 80.256 14.304 79.488 14.016C78.24 13.632 77.088 13.056 76.032 12.288C75.264 11.616 74.496 10.848 73.824 10.08C73.152 10.848 72.384 11.616 71.52 12.288C70.56 13.056 69.408 13.632 68.16 14.016C67.392 14.304 66.624 14.496 65.76 14.784C63.744 15.552 61.44 16.32 58.176 16.896C55.584 17.376 53.376 18.144 51.744 19.296C50.112 20.352 48.864 21.792 48.288 23.712C47.424 26.496 47.52 28.704 48 30.72C48.576 32.736 49.632 34.56 50.688 36.384C51.648 38.016 52.416 39.168 53.184 40.32C53.952 41.376 54.816 42.432 55.776 43.68C56.256 44.16 56.736 44.64 57.216 45.12C57.408 45.312 57.12 45.696 57.312 45.888L57.408 46.08L57.024 46.944L56.832 46.848C56.064 46.08 55.296 45.408 54.624 44.64C53.568 43.392 52.8 42.336 51.936 41.184C51.168 40.032 50.304 38.784 49.344 37.152C48.288 35.232 47.136 33.312 46.56 31.104C45.984 28.8 45.888 26.304 46.848 23.232C47.616 20.928 48.96 19.296 50.88 18.048C52.704 16.8 55.104 15.936 57.984 15.456C61.056 14.88 63.264 14.112 65.28 13.344C66.144 13.056 66.912 12.864 67.68 12.576C68.832 12.288 69.792 11.712 70.656 11.04C71.616 10.272 72.48 9.408 73.248 8.352L73.824 7.488L74.4 8.352C75.168 9.408 76.032 10.272 76.992 11.04C77.856 11.712 78.816 12.288 79.872 12.576C80.736 12.864 81.504 13.056 82.368 13.344C84.288 14.112 86.592 14.88 89.664 15.456C92.448 15.936 94.848 16.8 96.768 18.048C98.688 19.296 100.032 20.928 100.8 23.232C101.664 26.304 101.664 28.8 101.088 31.104C100.512 33.312 99.36 35.232 98.208 37.152C97.344 38.784 96.48 40.032 95.712 41.184C94.848 42.336 93.984 43.392 92.928 44.64C92.736 44.832 92.544 45.12 92.352 45.312C92.256 45.408 91.776 45.888 91.296 46.464C90.528 47.136 91.296 45.312 91.2 45.408L88.896 46.944ZM48.864 53.376C48.768 53.088 47.616 53.088 47.52 52.8C47.136 51.936 46.656 50.976 46.272 50.208C45.408 48.768 44.736 47.712 43.968 46.56C43.2 45.408 42.336 44.352 41.184 42.912C39.744 41.28 38.4 39.648 36.672 38.496C35.04 37.344 32.928 36.48 30.048 36.384C28.032 36.288 26.304 36.864 24.672 38.112C23.04 39.264 21.6 41.184 20.256 43.392C18.624 46.272 17.088 48.192 15.744 49.824C15.264 50.496 14.688 51.168 14.208 51.84C13.44 52.896 12.48 53.76 11.424 54.432C10.56 55.008 9.6 55.392 8.544 55.776C9.12 56.736 9.6 57.696 9.888 58.656C10.272 59.904 10.464 61.152 10.368 62.496C10.368 63.264 10.368 64.128 10.368 64.896C10.272 67.104 10.272 69.504 9.792 72.768C9.312 75.456 9.312 77.76 9.792 79.68C10.272 81.6 11.136 83.232 12.768 84.384C15.072 86.112 17.28 86.88 19.296 87.072C21.408 87.168 23.424 86.88 25.536 86.496C27.36 86.112 28.704 85.824 30.048 85.44C31.392 85.056 32.64 84.576 34.08 84.096C34.944 83.712 36 83.232 37.056 82.848C37.824 82.464 38.88 81.984 39.648 81.696L39.936 82.464L38.208 83.424C37.728 83.616 39.072 83.52 38.4 83.808C38.112 84 37.92 84.096 37.632 84.192C36.672 84.672 35.616 85.152 34.656 85.536C33.024 86.016 31.776 86.496 30.432 86.88C29.088 87.264 27.648 87.552 25.824 87.936C23.616 88.32 21.408 88.704 19.2 88.512C16.896 88.32 14.496 87.552 11.904 85.632C9.984 84.192 8.832 82.272 8.256 80.064C7.776 77.856 7.872 75.36 8.256 72.576C8.736 69.408 8.832 67.104 8.832 64.896C8.832 64.032 8.832 63.168 8.832 62.4C8.928 61.248 8.736 60.192 8.448 59.136C8.064 57.984 7.488 56.832 6.816 55.776L6.144 54.912L7.2 54.624C8.448 54.336 9.6 53.76 10.56 53.184C11.52 52.512 12.288 51.84 12.96 50.88C13.44 50.208 14.016 49.632 14.592 48.864C15.936 47.232 17.376 45.408 19.008 42.624C20.448 40.224 21.984 38.208 23.808 36.864C25.632 35.52 27.648 34.752 30.048 34.848C33.312 35.04 35.616 35.904 37.536 37.248C39.456 38.496 40.8 40.224 42.336 41.952C43.488 43.392 44.352 44.544 45.216 45.696C45.984 46.848 46.752 48 47.52 49.44C48.096 50.304 48.48 51.264 48.864 52.224C49.056 52.512 49.152 52.704 49.248 52.896L48.864 53.376ZM53.088 49.92H52.992L51.936 49.344L47.328 43.008C45.408 40.32 43.488 37.728 41.664 35.04L41.472 34.752C40.032 33.12 38.208 31.968 36.096 31.2C33.696 30.336 31.008 30.048 28.512 30.144C25.92 30.24 23.52 31.104 21.504 32.448C19.008 33.984 16.992 36.096 15.552 38.208C14.304 40.128 13.344 41.664 12.576 43.104C11.424 45.024 10.464 46.656 8.832 48.672C7.776 50.208 7.2 51.456 5.856 52.224C4.8 52.896 3.84 53.28 2.688 53.568C3.36 54.528 3.84 55.584 4.224 56.64C4.8 58.176 4.416 59.616 4.32 61.44C4.224 64.128 3.936 65.952 3.552 68.16C3.36 69.696 3.072 71.424 2.784 73.824C2.496 76.416 2.784 79.296 3.648 82.08C4.416 84.384 5.76 86.592 7.68 88.224C9.504 89.952 11.808 91.488 14.208 92.352C16.32 93.12 18.528 93.408 20.544 93.12C20.832 93.024 21.216 92.928 21.504 92.832C24.672 91.68 27.84 90.816 30.912 89.952C33.696 89.088 36.576 88.224 39.36 87.456C39.84 87.264 40.128 87.744 40.608 87.648L40.992 87.744L41.184 88.416C40.8 88.512 40.512 88.704 40.128 88.8C37.248 89.856 34.368 90.624 31.584 91.392L31.2 91.488H31.104C28.032 92.448 24.96 93.408 21.984 94.272C20.256 95.136 18.72 96.864 17.472 98.784C15.936 101.28 14.784 104.256 14.208 106.944C13.728 109.44 13.92 111.936 14.592 114.24C15.456 117.024 16.992 119.52 18.72 121.44C20.256 123.264 21.504 124.512 22.656 125.664C24.288 127.2 25.536 128.544 27.168 130.656C28.32 132.096 29.088 133.536 29.472 135.072C29.856 136.128 29.952 137.28 29.952 138.432C31.104 138.048 32.16 137.76 33.312 137.664C34.944 137.568 36.48 137.76 38.304 138.336C40.8 139.008 42.528 139.776 44.544 140.736C45.984 141.408 47.616 142.08 49.824 142.944C52.32 143.904 55.2 144.384 58.08 144.192C60.48 144 62.976 143.328 65.088 141.984C67.2 140.544 69.216 138.72 70.656 136.608C72 134.784 72.864 132.768 73.056 130.752C72.96 127.296 73.056 124.032 73.056 120.768C73.056 118.272 73.056 115.776 73.056 113.184C73.056 112.416 73.632 112.32 73.728 111.456L74.016 111.84C74.016 112.8 74.592 112.608 74.592 113.472C74.592 115.968 74.592 118.368 74.592 120.768C74.592 124.032 74.592 127.296 74.592 130.752C74.784 132.768 75.648 134.784 76.896 136.608C78.432 138.72 80.448 140.544 82.56 141.984C84.672 143.328 87.168 144 89.568 144.192C92.448 144.384 95.328 143.904 97.728 142.944C100.032 142.08 101.664 141.408 103.104 140.736C105.12 139.776 106.848 139.008 109.344 138.336C111.072 137.76 112.704 137.568 114.24 137.664C115.392 137.76 116.544 138.048 117.6 138.432C117.696 137.28 117.792 136.128 118.176 135.072C118.56 133.536 119.328 132.096 120.48 130.656C122.016 128.544 123.36 127.2 124.992 125.664C126.048 124.512 127.296 123.264 128.928 121.44C130.656 119.52 132.096 117.024 132.96 114.24C133.728 111.936 133.92 109.44 133.44 106.944C132.864 104.256 131.712 101.28 130.176 98.784C128.928 96.864 127.392 95.136 125.664 94.272C122.688 93.408 119.904 92.544 117.024 91.68L116.832 91.584L116.544 91.488C113.568 90.72 109.632 89.568 106.368 88.416L106.56 87.936C107.712 88.128 108.384 87.456 108.576 87.456C111.36 88.32 114.624 89.28 117.216 90.144C120.096 90.912 122.976 91.68 126.144 92.832C126.432 92.928 126.816 93.024 127.104 93.12C129.12 93.408 131.328 93.12 133.44 92.352C135.744 91.488 138.048 89.952 139.968 88.224C141.888 86.592 143.136 84.384 144 82.08C144.864 79.296 145.152 76.416 144.864 73.824C144.576 71.424 144.288 69.696 144.096 68.16C143.712 65.952 143.424 64.128 143.328 61.44C143.232 59.616 142.848 58.176 143.328 56.736C143.712 55.68 144.288 54.624 144.96 53.664C143.808 53.376 142.752 52.896 141.792 52.32C140.448 51.552 139.872 50.208 138.72 48.672C137.088 46.656 136.224 45.024 135.072 43.104C134.304 41.664 133.344 40.128 132.096 38.208C130.656 36.096 128.64 33.984 126.144 32.448C124.032 31.104 121.728 30.24 119.136 30.144C116.544 30.048 113.856 30.336 111.456 31.2C109.536 31.872 107.808 32.832 106.464 34.176C106.368 34.368 106.272 34.56 106.176 34.656V34.752L95.808 49.248L94.656 50.304L93.504 51.168L93.792 50.304C94.272 49.632 93.792 49.344 94.272 48.768C95.808 46.56 97.344 44.352 98.88 42.144C100.896 39.36 102.912 36.48 104.928 33.696V33.6C105.024 33.504 105.12 33.408 105.216 33.312C105.984 31.68 106.368 29.76 106.272 27.744C106.272 25.152 105.696 22.56 104.736 20.16C103.68 17.76 102.144 15.84 100.128 14.304C97.92 12.576 95.232 11.328 92.736 10.752C90.432 10.176 88.704 9.792 87.072 9.504C84.96 9.12 83.04 8.736 80.544 7.968C78.816 7.392 77.376 6.336 76.128 5.376C75.264 4.608 74.496 3.744 73.824 2.784C73.152 3.744 72.384 4.608 71.424 5.376C70.272 6.336 68.832 7.392 67.008 7.968C64.512 8.736 62.688 9.12 60.48 9.504C58.944 9.792 57.216 10.176 54.912 10.752C52.416 11.328 49.728 12.576 47.424 14.304C45.504 15.84 43.872 17.76 42.912 20.16C41.952 22.56 41.376 25.152 41.28 27.744C41.28 29.952 41.76 32.064 42.72 33.888L42.816 34.08L48.384 41.856L48.672 42.24C50.208 44.256 51.648 46.368 53.184 48.48C53.184 48.48 53.568 50.016 53.664 50.4L53.088 49.92ZM18.72 94.752C17.088 94.752 15.36 94.368 13.728 93.792C11.136 92.832 8.64 91.2 6.624 89.376C4.512 87.456 3.072 85.056 2.208 82.56C1.248 79.584 0.96 76.416 1.248 73.632C1.536 71.232 1.824 69.504 2.112 67.872C2.4 65.76 2.688 63.936 2.784 61.44C2.88 59.712 3.264 58.464 2.88 57.12C2.4 55.872 1.728 54.72 0.768 53.664L0 52.608L1.248 52.416C2.592 52.128 3.936 51.648 5.088 50.976C6.24 50.208 6.624 49.152 7.68 47.808C9.216 45.792 10.176 44.256 11.232 42.336C12 40.992 12.96 39.456 14.304 37.344C15.84 35.04 18.048 32.736 20.64 31.104C22.944 29.664 25.632 28.704 28.416 28.608C31.104 28.512 33.984 28.896 36.576 29.856C37.92 30.336 39.168 30.912 40.224 31.68C39.936 30.432 39.84 29.088 39.84 27.744C39.84 24.96 40.512 22.08 41.568 19.584C42.624 16.992 44.448 14.784 46.56 13.152C48.96 11.232 51.84 9.888 54.528 9.216C56.928 8.64 58.656 8.352 60.288 8.064C62.4 7.68 64.224 7.296 66.624 6.528C68.16 6.048 69.504 4.992 70.56 4.128C71.616 3.264 72.48 2.304 73.152 1.056L73.824 0L74.496 1.056C75.168 2.304 76.032 3.264 77.088 4.128C78.144 4.992 79.488 6.048 81.024 6.528C83.424 7.296 85.248 7.68 87.36 8.064C88.992 8.352 90.72 8.64 93.12 9.216C95.808 9.888 98.688 11.232 101.088 13.152C103.2 14.784 105.024 16.992 106.08 19.584C107.136 22.08 107.808 24.96 107.808 27.744C107.808 28.992 107.712 30.24 107.424 31.488C108.48 30.72 109.728 30.144 110.976 29.76C113.568 28.896 116.448 28.512 119.232 28.608C122.016 28.704 124.704 29.664 126.912 31.104C129.6 32.736 131.808 35.04 133.344 37.344C134.688 39.456 135.552 40.992 136.416 42.336C137.472 44.256 138.432 45.792 139.968 47.808C140.928 49.152 141.408 50.304 142.56 51.072C143.712 51.744 144.96 52.224 146.4 52.512L147.648 52.704L146.784 53.664C145.92 54.816 145.248 55.968 144.768 57.216C144.288 58.56 144.768 59.712 144.864 61.44C144.864 63.936 145.152 65.76 145.536 67.872C145.824 69.504 146.112 71.232 146.304 73.632C146.592 76.416 146.4 79.584 145.344 82.56C144.48 85.056 143.136 87.456 141.024 89.376C138.912 91.2 136.512 92.832 133.92 93.792C132.288 94.368 130.56 94.752 128.832 94.752C129.792 95.712 130.656 96.768 131.424 98.016C133.056 100.704 134.304 103.776 134.88 106.56C135.456 109.344 135.264 112.128 134.4 114.72C133.536 117.696 131.904 120.384 129.984 122.496C128.448 124.32 127.104 125.568 126.048 126.72C124.512 128.256 123.168 129.504 121.632 131.52C120.672 132.864 120 134.112 119.616 135.456C119.232 136.8 119.04 138.144 119.136 139.584L119.232 140.832L118.08 140.256C116.832 139.68 115.488 139.296 114.144 139.2C112.8 139.104 111.36 139.296 109.728 139.776C107.328 140.448 105.696 141.216 103.68 142.08C102.144 142.752 100.512 143.52 98.304 144.384C95.712 145.344 92.544 145.92 89.472 145.728C86.784 145.536 84.096 144.768 81.696 143.232C79.392 141.696 77.28 139.776 75.648 137.472C74.88 136.416 74.304 135.264 73.824 134.016C73.344 135.264 72.672 136.416 71.904 137.472C70.368 139.776 68.16 141.696 65.856 143.232C63.552 144.768 60.864 145.536 58.176 145.728C55.008 145.92 51.936 145.344 49.344 144.384C47.136 143.52 45.408 142.752 43.968 142.08C41.952 141.216 40.32 140.448 37.92 139.776C36.288 139.296 34.848 139.104 33.504 139.2C32.064 139.296 30.816 139.68 29.472 140.256L28.32 140.832L28.416 139.584C28.512 138.144 28.416 136.8 28.032 135.456C27.648 134.112 26.976 132.864 26.016 131.52C24.384 129.504 23.136 128.256 21.6 126.72C20.448 125.568 19.2 124.32 17.568 122.496C15.744 120.384 14.112 117.696 13.152 114.72C12.384 112.128 12.192 109.344 12.768 106.56C13.344 103.776 14.496 100.704 16.128 98.016C16.896 96.768 17.76 95.712 18.72 94.752ZM68.448 113.76C68.448 114.144 69.024 112.704 69.024 113.088C69.12 113.856 69.312 115.008 69.312 115.2C69.408 116.832 69.504 118.176 69.6 119.52C69.6 120.96 69.504 122.4 69.408 124.32C69.216 126.528 69.024 128.736 68.256 130.848C67.488 133.056 66.144 135.168 63.552 137.184C61.728 138.624 59.616 139.296 57.312 139.2C55.104 139.2 52.608 138.432 50.016 137.28C47.136 136.032 44.832 135.36 42.816 134.88C41.952 134.592 41.088 134.4 40.416 134.112C39.264 133.824 38.208 133.632 37.056 133.728C35.904 133.728 34.656 134.016 33.504 134.496L32.448 134.784V133.728C32.448 132.48 32.256 131.232 31.872 130.08C31.488 129.024 31.008 128.064 30.336 127.2C29.856 126.528 29.28 125.856 28.8 125.184C27.552 123.456 26.112 121.536 23.904 119.328C21.888 117.312 20.352 115.2 19.584 113.184C18.72 111.072 18.528 108.864 19.2 106.56C20.16 103.488 21.696 101.472 23.424 99.936C25.152 98.496 27.168 97.536 29.184 96.576C30.912 95.808 32.256 95.232 33.6 94.752C34.944 94.272 36.192 93.888 37.728 93.408C38.688 93.12 40.8 92.832 41.856 92.64L41.088 93.888L42.432 94.08L42.144 94.176C41.088 94.272 39.072 94.656 38.208 94.848C36.576 95.328 35.328 95.712 34.08 96.192C32.832 96.576 31.488 97.152 29.856 97.92C27.84 98.88 26.016 99.744 24.384 101.088C22.848 102.432 21.504 104.256 20.64 107.04C20.064 108.96 20.256 110.784 20.928 112.608C21.696 114.528 23.136 116.352 24.96 118.272C27.264 120.576 28.704 122.496 30.048 124.32C30.528 124.992 31.008 125.664 31.488 126.24C32.352 127.296 32.928 128.448 33.312 129.696C33.6 130.656 33.792 131.712 33.888 132.768C34.944 132.48 36 132.288 37.056 132.192C38.304 132.192 39.552 132.288 40.8 132.672C41.664 132.96 42.432 133.152 43.2 133.344C45.312 133.92 47.616 134.592 50.688 135.936C53.088 136.992 55.296 137.664 57.312 137.664C59.328 137.76 61.056 137.184 62.688 135.936C64.992 134.208 66.144 132.288 66.912 130.368C67.584 128.448 67.776 126.336 67.872 124.224C68.064 122.304 68.064 120.96 68.064 119.616C68.064 118.176 67.968 116.928 67.776 115.296C67.776 115.104 67.488 113.088 67.488 112.8C67.488 112.608 67.392 112.416 67.392 112.224L68.064 112.032L68.448 113.76ZM79.872 112.704C79.776 113.088 80.256 112.896 80.256 113.28C79.872 115.008 79.68 116.544 79.584 118.08C79.488 120 79.584 121.92 79.776 124.224C79.872 126.336 80.064 128.448 80.736 130.368C81.408 132.288 82.656 134.208 84.96 135.936C86.592 137.184 88.32 137.76 90.24 137.664C92.256 137.664 94.56 136.992 96.96 135.936C99.936 134.592 102.336 133.92 104.448 133.344C105.216 133.152 105.984 132.96 106.752 132.672C108 132.288 109.344 132.192 110.592 132.192C111.648 132.288 112.704 132.48 113.664 132.768C113.76 131.712 113.952 130.656 114.336 129.696C114.72 128.448 115.296 127.296 116.16 126.24C116.64 125.664 117.12 124.992 117.6 124.32C118.944 122.496 120.288 120.576 122.688 118.272C124.512 116.352 125.952 114.528 126.72 112.608C127.392 110.784 127.584 108.96 127.008 107.04C126.048 104.256 124.8 102.432 123.264 101.088C121.632 99.744 119.808 98.88 117.792 97.92C116.16 97.152 114.816 96.576 113.568 96.192C112.32 95.712 110.976 95.328 109.44 94.848C108.576 94.656 105.312 94.08 104.352 93.888H104.064C104.064 93.696 106.08 93.984 106.272 93.408C106.272 93.312 105.984 92.736 105.888 92.64C107.328 92.928 109.248 93.216 109.824 93.408C111.456 93.888 112.704 94.272 114.048 94.752C115.392 95.232 116.736 95.808 118.464 96.576C120.48 97.536 122.496 98.496 124.224 99.936C125.952 101.472 127.392 103.488 128.448 106.56C129.12 108.864 128.928 111.072 128.064 113.184C127.2 115.2 125.76 117.312 123.744 119.328C121.44 121.536 120.096 123.456 118.848 125.184C118.272 125.856 117.792 126.528 117.312 127.2C116.64 128.064 116.064 129.024 115.776 130.08C115.392 131.232 115.2 132.48 115.2 133.728L115.104 134.784L114.144 134.496C112.992 134.016 111.744 133.728 110.496 133.728C109.44 133.632 108.288 133.824 107.232 134.112C106.464 134.4 105.696 134.592 104.832 134.88C102.72 135.36 100.512 136.032 97.536 137.28C94.944 138.432 92.544 139.2 90.336 139.2C88.032 139.296 85.92 138.624 84 137.184C81.504 135.168 80.16 133.056 79.392 130.848C78.528 128.736 78.432 126.528 78.24 124.32C78.048 122.016 78.048 120 78.144 118.08C78.24 116.736 78.336 115.392 78.528 114.048C78.624 113.376 79.392 112.896 79.584 112.128L79.872 112.704ZM98.688 53.088C98.88 52.704 98.976 52.416 99.072 52.128C99.168 51.936 98.88 51.84 98.976 51.552C99.36 50.784 99.648 50.112 100.032 49.44C100.896 48 101.664 46.848 102.432 45.696C103.2 44.544 104.16 43.392 105.312 41.952C106.752 40.224 108.192 38.496 110.112 37.248C112.032 35.904 114.336 35.04 117.6 34.848C119.904 34.752 122.016 35.52 123.84 36.864C125.664 38.208 127.2 40.224 128.64 42.624C130.272 45.408 131.712 47.232 133.056 48.864C133.632 49.632 134.112 50.208 134.592 50.88C135.264 51.84 136.128 52.512 137.088 53.184C138.048 53.76 139.2 54.336 140.448 54.624L141.408 54.912L140.832 55.776C140.16 56.832 139.584 57.984 139.2 59.136C138.816 60.192 138.72 61.248 138.72 62.4C138.816 63.168 138.816 64.032 138.816 64.896C138.816 67.104 138.816 69.408 139.392 72.576C139.776 75.36 139.872 77.856 139.296 80.064C138.816 82.272 137.664 84.192 135.744 85.632C133.152 87.552 130.752 88.32 128.448 88.512C126.24 88.704 124.032 88.32 121.824 87.936C120 87.552 118.56 87.264 117.216 86.88C115.872 86.496 114.528 86.016 112.992 85.536C112.128 85.152 111.168 84.672 110.208 84.192C110.016 84 109.632 84 109.44 83.808C109.344 83.52 108.864 82.848 108.384 82.656L109.248 82.272C109.824 82.464 109.728 82.176 110.304 82.464C110.496 82.656 110.688 82.752 110.88 82.848C111.84 83.328 112.704 83.808 113.568 84.096C115.008 84.576 116.256 85.056 117.6 85.44C118.944 85.824 120.288 86.112 122.112 86.496C124.224 86.88 126.24 87.168 128.352 87.072C130.368 86.88 132.48 86.112 134.88 84.384C136.416 83.232 137.376 81.6 137.856 79.68C138.336 77.76 138.24 75.456 137.856 72.768C137.376 69.504 137.28 67.104 137.28 64.896C137.28 64.128 137.28 63.264 137.28 62.496C137.184 61.152 137.376 59.904 137.76 58.656C138.048 57.696 138.528 56.736 139.104 55.776C138.048 55.392 137.088 55.008 136.224 54.432C135.168 53.76 134.208 52.896 133.44 51.84C132.864 51.072 132.384 50.496 131.904 49.824C130.56 48.192 129.024 46.272 127.296 43.392C125.952 41.184 124.512 39.264 122.976 38.112C121.344 36.864 119.616 36.288 117.6 36.384C114.72 36.48 112.608 37.344 110.976 38.496C109.248 39.648 107.904 41.28 106.464 42.912C105.312 44.352 104.448 45.408 103.68 46.56C102.912 47.712 102.144 48.768 101.376 50.208C100.896 50.976 100.512 51.936 100.128 52.8C99.936 53.184 98.88 53.28 98.784 53.568L98.688 53.088Z" fill="#004D71"/>
<path d="M115.296 28.7999C116.256 24.7679 116.832 21.8879 116.448 18.0479C113.28 18.9119 110.4 20.3519 107.136 22.5599L106.656 21.1199C109.824 18.9119 113.184 17.2799 116.928 16.3199L117.792 16.1279L117.888 16.9919C118.368 20.8319 118.08 24.6719 116.736 28.6079L115.296 28.7999Z" fill="#004D71"/>
<path d="M133.056 102.24C137.088 102.048 140.064 101.664 143.616 100.128C141.792 97.4399 139.584 95.0399 136.416 92.6399L137.76 91.6799C140.736 94.0799 143.328 96.7679 145.344 100.128L145.824 100.8L145.056 101.184C141.504 102.816 137.76 103.68 133.632 103.68L133.056 102.24Z" fill="#004D71"/>
<path d="M68.6401 141.12C69.9841 144.96 71.2321 147.84 73.7281 150.72C75.8401 148.224 77.8561 144.864 79.0081 141.12L80.2561 142.176C79.3921 144.96 76.8961 149.472 74.3041 152.352L73.7281 153.024L73.1521 152.352C70.5601 149.472 68.6401 146.112 67.3921 142.08L68.6401 141.12Z" fill="#004D71"/>
<path d="M11.808 92.5439C8.54397 94.9439 6.14397 96.8639 4.03197 100.032C7.00797 101.376 10.176 102.24 14.112 102.528L13.536 103.968C9.69597 103.584 6.04797 102.72 2.59197 100.992L1.82397 100.608L2.30397 99.9359C4.41597 96.6719 7.00797 93.8879 10.56 91.6799L11.808 92.5439Z" fill="#004D71"/>
<path d="M40.512 23.5201C37.248 21.0241 34.752 19.2961 31.104 18.2401C30.72 21.4081 30.816 24.8641 31.68 28.7041L30.144 28.6081C29.376 24.7681 29.088 20.9281 29.76 17.0881L29.952 16.3201L30.72 16.5121C34.464 17.5681 37.824 19.2961 40.992 22.0801L40.512 23.5201Z" fill="#004D71"/>
<path fill-rule="evenodd" clip-rule="evenodd" d="M73.824 66.624C79.968 66.624 84.864 71.616 84.864 77.664C84.864 83.808 79.968 88.8 73.824 88.8C67.68 88.8 62.688 83.808 62.688 77.664C62.688 71.616 67.68 66.624 73.824 66.624ZM73.824 65.76C80.448 65.76 85.824 71.136 85.824 77.664C85.824 84.288 80.448 89.664 73.824 89.664C67.2 89.664 61.824 84.288 61.824 77.664C61.824 71.136 67.2 65.76 73.824 65.76Z" fill="#004D71"/>
<path d="M52.704 103.872C51.648 104.928 50.592 105.984 49.44 107.04C46.944 109.344 44.448 111.648 42.528 114.432C41.088 116.64 40.32 119.136 39.648 121.728C39.36 122.688 39.072 123.552 38.784 124.416C39.552 123.936 40.416 123.456 41.184 122.976C43.488 121.632 45.792 120.288 47.52 118.368C49.824 115.872 51.552 112.896 53.184 109.92C53.952 108.576 54.72 107.232 55.488 105.888C54.528 105.312 53.664 104.64 52.704 103.872ZM52.32 113.088C51.744 114.048 51.36 115.008 51.072 115.872C50.88 116.64 50.784 117.312 50.688 117.984C52.224 116.928 53.472 115.488 54.624 113.76C55.872 111.84 57.024 109.728 58.08 107.424C57.504 107.136 56.832 106.752 56.256 106.368C55.392 107.616 54.624 108.96 53.856 110.304C53.376 111.264 52.8 112.128 52.224 113.088H52.32ZM58.848 107.808C58.464 108.576 58.08 109.248 57.696 110.016C57.312 110.976 57.12 111.936 56.928 112.896C56.736 113.76 56.736 114.528 56.64 115.296C57.408 114.528 57.984 113.568 58.56 112.512C59.136 111.36 59.616 109.632 59.904 108.384C59.52 108.192 59.232 108 58.848 107.808ZM56.064 112.992C55.872 113.376 55.584 113.76 55.296 114.144C53.952 116.256 52.416 117.984 50.496 119.136L49.824 119.52V118.752C49.92 117.888 50.016 117.12 50.112 116.352C49.536 117.216 48.864 118.08 48.096 118.848C46.272 120.864 43.968 122.304 41.664 123.648C39.936 124.704 38.496 125.664 36.864 126.816C37.824 124.992 38.304 123.552 38.88 121.536C39.648 118.848 40.32 116.256 41.856 113.952C42.432 113.184 43.104 112.32 43.68 111.552C43.104 111.936 42.432 112.128 41.664 112.32L40.992 112.512L41.184 111.84C41.664 110.112 42.624 108.576 43.776 107.04C43.776 107.04 43.776 107.04 43.68 107.136C43.104 107.232 42.432 107.328 41.856 107.424L40.992 107.52L41.472 106.848C42.144 105.888 42.816 105.024 43.488 104.256C43.104 104.352 42.72 104.448 42.336 104.448L41.472 104.544L41.952 103.872C42.624 102.816 43.392 101.856 44.256 100.992C43.68 101.184 43.104 101.376 42.432 101.472L41.664 101.568L42.048 100.8C42.432 100.032 43.008 99.36 43.584 98.688C43.008 98.88 42.432 98.976 41.856 98.976H41.184L41.472 98.4C41.856 97.728 42.336 97.152 42.816 96.576C42.432 96.672 42.048 96.672 41.664 96.672H40.992L41.28 96.096C41.664 95.424 42.048 94.848 42.624 94.368C42.144 94.464 41.568 94.464 40.992 94.368H40.416L40.608 93.888C40.896 93.216 41.28 92.64 41.76 92.16C41.76 92.16 41.76 92.16 41.856 92.16C41.376 92.16 40.896 92.16 40.416 92.064L39.84 91.968L40.128 91.488C40.32 91.008 40.704 90.624 41.088 90.24C40.608 90.144 40.128 90.048 39.648 89.856L39.264 89.664L39.552 89.28C39.84 88.8 40.128 88.416 40.512 88.128C40.032 88.032 39.552 87.84 38.976 87.648L38.496 87.456L38.88 86.976C39.072 86.688 39.36 86.496 39.648 86.208C39.264 86.208 38.784 86.016 38.304 85.824L37.824 85.632L38.208 85.152C38.496 84.864 38.88 84.576 39.264 84.288C38.784 84.288 38.304 84.192 37.824 84L37.056 83.808L37.632 83.328C38.112 82.944 38.592 82.56 39.168 82.272L39.264 82.176C39.168 82.176 39.072 82.176 38.976 82.176C38.304 82.08 37.632 81.888 36.96 81.696L36.192 81.408L36.864 81.024C37.44 80.64 37.92 80.352 38.496 80.064C38.4 80.064 38.4 80.064 38.304 80.064C37.44 79.968 36.576 79.68 35.808 79.296L35.04 79.008L35.712 78.624C36.384 78.336 36.96 78.048 37.536 77.856C36.576 77.664 35.52 77.472 34.464 76.992L33.792 76.704L34.368 76.32C34.752 76.032 35.136 75.84 35.52 75.648C34.656 75.456 33.792 75.168 32.832 74.784L31.968 74.304L32.928 74.016C33.504 73.824 34.08 73.632 34.752 73.44C33.6 73.344 32.448 72.96 31.104 72.384L30.432 72.096L31.104 71.712C31.392 71.52 31.776 71.328 32.16 71.136C30.336 70.656 28.704 69.888 27.264 68.736L26.784 68.256L27.456 68.064C28.224 67.776 28.992 67.584 29.76 67.488C28.704 67.2 27.744 66.912 26.688 66.432C24.192 65.472 22.08 63.744 19.968 62.016C18.432 60.864 17.088 59.904 15.552 58.848C17.376 58.944 19.104 58.848 21.024 58.656C23.712 58.464 26.4 58.272 29.088 58.848C30.048 59.136 31.008 59.424 31.968 59.808C31.488 59.232 31.008 58.752 30.528 58.08L30.144 57.504H30.816C32.928 57.312 35.136 57.792 37.248 58.656L37.152 58.56C36.768 58.08 36.48 57.504 36.192 57.024L35.808 56.256L36.672 56.448C38.016 56.736 39.264 57.12 40.416 57.6C39.936 57.024 39.648 56.448 39.36 55.776L39.072 55.008L39.84 55.296C41.184 55.776 42.432 56.352 43.68 57.024C43.104 56.352 42.624 55.584 42.336 54.72L42.048 53.952L42.816 54.144C43.584 54.432 44.352 54.72 45.12 55.2C44.832 54.72 44.544 54.24 44.352 53.76L44.16 53.088L44.832 53.28C45.696 53.376 46.368 53.664 47.04 54.048C46.848 53.664 46.656 53.184 46.464 52.608L46.272 51.936L46.944 52.128C47.52 52.224 48 52.512 48.48 52.8C48.384 52.416 48.192 52.032 48.096 51.648L47.904 50.976L48.576 51.168C49.056 51.264 49.536 51.456 50.016 51.648C49.824 51.264 49.728 50.88 49.536 50.4L49.44 49.728L50.112 49.92C50.688 50.112 51.264 50.4 51.744 50.688C51.648 50.208 51.552 49.632 51.552 49.056L51.456 48.192L52.128 48.672C52.32 48.864 52.608 49.056 52.8 49.248C52.704 48.768 52.704 48.288 52.8 47.808L52.896 47.424L53.28 47.52C53.664 47.616 53.952 47.808 54.24 48C54.24 47.712 54.24 47.52 54.24 47.136V46.656L54.72 46.752C55.104 46.944 55.488 47.136 55.872 47.424C55.776 47.04 55.68 46.56 55.68 45.984V45.408L56.256 45.696C56.544 45.792 56.832 45.984 57.024 46.176C56.928 45.696 56.928 45.216 57.024 44.736L57.12 44.16L57.6 44.448C58.08 44.64 58.464 45.024 58.752 45.312C58.656 44.736 58.56 44.064 58.56 43.488V42.624L59.232 43.104C59.712 43.488 60.096 43.776 60.48 44.256C60.288 43.488 60.192 42.624 60.192 41.76L60.288 41.184L60.864 41.472C61.536 41.856 62.112 42.432 62.592 43.008C62.4 41.76 62.304 40.512 62.4 39.264V38.496L62.976 38.976C63.648 39.36 64.128 39.936 64.512 40.512C64.512 39.84 64.512 39.264 64.512 38.688C64.608 37.632 64.704 36.48 65.088 35.424L65.28 34.752L65.76 35.232C66.24 35.808 66.72 36.48 67.104 37.248C67.008 34.848 67.2 32.64 67.968 30.528L68.256 29.856L68.64 30.528C69.12 31.104 69.504 31.68 69.792 32.352C69.696 31.296 69.696 30.336 69.792 29.28C69.984 26.592 71.04 24.096 72 21.504C72.672 19.968 73.152 18.336 73.824 16.8C74.4 18.336 74.976 19.968 75.552 21.504C76.512 24.096 77.568 26.592 77.76 29.28C77.856 30.432 77.856 31.488 77.76 32.544C78.144 31.872 78.528 31.104 79.008 30.528L79.488 29.856L79.776 30.528C80.448 32.352 80.64 34.368 80.544 36.384C80.832 35.904 81.216 35.52 81.504 35.232L82.08 34.752L82.176 35.424C82.368 36.576 82.368 37.728 82.464 38.88C82.464 39.264 82.464 39.648 82.368 40.128C82.848 39.36 83.328 38.688 84 38.112L84.576 37.536V38.4C84.576 39.456 84.576 40.512 84.48 41.568C84.768 41.088 85.152 40.608 85.536 40.224L86.208 39.552V40.416C86.304 41.472 86.304 42.528 86.112 43.584C86.112 43.776 86.016 44.064 86.016 44.256C86.496 43.584 86.976 43.008 87.552 42.336L88.224 41.76L88.32 42.624C88.32 43.296 88.224 43.968 88.128 44.544C88.416 44.16 88.8 43.872 89.184 43.584L89.856 43.104L89.76 43.968C89.76 44.736 89.664 45.408 89.568 46.176C90.048 45.696 90.528 45.312 91.008 45.024L91.584 44.736V45.408C91.584 45.984 91.584 46.464 91.488 47.04C91.776 46.752 92.064 46.56 92.448 46.368L93.024 46.176V46.752C93.024 47.232 93.024 47.712 92.928 48.192C93.216 47.904 93.6 47.712 93.888 47.52L94.464 47.232V47.808C94.56 48.48 94.464 49.152 94.368 49.824C94.368 49.824 94.464 49.728 94.56 49.728C94.944 49.344 95.424 49.152 95.904 48.96L96.48 48.672L96.384 49.344C96.384 49.92 96.192 50.496 96 50.976C96 50.976 96.096 50.976 96.096 50.88C96.576 50.592 97.152 50.304 97.728 50.112L98.304 49.824L98.208 50.592C98.208 50.976 98.016 51.36 97.92 51.744C98.304 51.552 98.688 51.36 99.168 51.264L99.84 51.072L99.648 51.744C99.648 52.128 99.456 52.512 99.36 52.896C99.84 52.608 100.32 52.416 100.896 52.32L101.472 52.224L101.376 52.8C101.28 53.28 101.088 53.76 100.896 54.144C101.568 53.76 102.24 53.472 102.816 53.184L103.488 52.896L103.392 53.664C103.2 54.336 103.008 54.816 102.72 55.296C103.584 54.816 104.544 54.432 105.312 54.24L105.984 54.144L105.792 54.816C105.6 55.488 105.216 56.16 104.736 56.832C105.792 56.256 106.848 55.776 108 55.488L108.864 55.2L108.48 55.968C108.192 56.64 107.808 57.216 107.424 57.792C107.616 57.6 107.904 57.504 108.192 57.408C109.056 57.024 110.016 56.64 111.072 56.448L111.744 56.256L111.552 56.928C111.36 57.6 111.072 58.176 110.688 58.656C112.704 57.984 114.72 57.6 116.64 57.696H117.408L116.928 58.368C116.544 58.944 116.064 59.52 115.488 60C116.448 59.616 117.408 59.328 118.368 59.136C121.056 58.464 123.744 58.656 126.528 58.944C128.16 59.04 129.792 59.04 131.52 59.136C130.272 60.288 128.832 61.248 127.584 62.304C125.376 63.936 123.264 65.664 120.768 66.624C119.808 67.104 118.752 67.392 117.696 67.68C118.464 67.776 119.232 67.968 120.096 68.256L120.768 68.448L120.192 68.928C118.464 70.272 116.448 71.136 114.144 71.712C114.432 71.712 114.624 71.808 114.816 71.808C115.488 72 116.16 72.192 116.64 72.384L117.504 72.768L116.64 73.152C115.2 73.728 113.76 74.016 112.32 74.304C113.28 74.496 114.144 74.688 114.816 75.168L115.584 75.648L114.72 75.84C113.472 76.224 112.32 76.512 111.36 76.608C112.032 76.8 112.704 77.184 113.28 77.568L113.952 78.048L113.184 78.336C112.128 78.528 111.168 78.72 110.208 78.816C110.88 79.008 111.456 79.296 112.032 79.68L112.704 80.256L111.84 80.448C111.072 80.64 110.304 80.736 109.632 80.736C110.208 81.024 110.688 81.408 111.168 81.984L111.552 82.464L110.976 82.56C110.4 82.752 109.824 82.848 109.344 82.848C109.728 83.04 110.016 83.424 110.208 83.712L110.304 84.096L109.92 84.288C109.536 84.384 109.056 84.48 108.576 84.576C109.056 84.864 109.44 85.152 109.728 85.632L110.016 86.016L109.536 86.208C109.056 86.4 108.48 86.496 107.904 86.592C108.288 86.88 108.672 87.168 108.864 87.552L109.152 87.936L108.672 88.128C108.192 88.32 107.616 88.416 107.136 88.416C107.616 88.8 108.192 89.28 108.48 89.76L108.768 90.24L108.192 90.336C107.616 90.528 106.944 90.528 106.368 90.528C106.848 90.912 107.232 91.296 107.424 91.872L107.616 92.352L107.136 92.448C106.752 92.448 106.368 92.448 105.984 92.448C106.368 92.736 106.56 93.024 106.848 93.312L107.232 93.792L106.656 93.888C106.08 94.08 105.504 94.176 104.928 94.08H105.024C105.504 94.56 105.888 95.136 106.272 95.712L106.56 96.192L105.888 96.288C105.504 96.288 105.024 96.288 104.544 96.288C105.216 96.672 105.696 97.152 106.08 97.728L106.656 98.304H105.792C105.216 98.304 104.64 98.304 104.064 98.208C104.736 98.688 105.312 99.36 105.792 100.032L106.176 100.704H105.408C104.736 100.704 104.064 100.512 103.392 100.32C104.256 101.184 105.024 102.048 105.6 103.008L106.176 103.776L105.216 103.584C104.544 103.488 103.872 103.296 103.2 103.104C103.392 103.392 103.68 103.68 103.872 103.968C104.736 105.024 105.408 106.176 106.176 107.328C104.832 106.944 103.584 106.656 102.24 106.08C103.872 108 105.504 110.304 106.656 112.512C105.6 112.224 104.928 111.84 103.872 111.36C104.64 112.128 105.312 113.088 105.984 113.952C107.424 116.256 108.192 118.848 108.96 121.536C109.536 123.456 110.016 124.992 110.88 126.816C109.344 125.568 107.904 124.704 106.176 123.648C103.872 122.304 101.568 120.864 99.648 118.848C98.976 118.08 98.304 117.216 97.632 116.352C97.824 117.12 97.92 117.888 97.92 118.752L98.016 119.52L97.344 119.136C95.424 117.984 93.888 116.256 92.544 114.24C92.544 114.336 92.544 114.528 92.544 114.624C92.544 115.296 92.448 115.968 92.256 116.544L92.064 117.312L91.584 116.736C90.528 115.392 89.664 114.048 88.896 112.608C88.896 112.512 88.8 112.512 88.8 112.416C88.992 113.856 88.992 115.2 88.704 116.544C87.744 115.584 87.072 114.528 86.496 113.184C86.496 113.952 86.4 114.72 86.304 115.296L86.112 116.16L85.536 115.488C84.96 114.624 84.384 113.76 84 112.704C83.904 113.376 83.712 113.952 83.52 114.624L83.232 115.296L82.752 114.72C82.272 114.048 81.984 113.28 81.696 112.512C81.504 113.088 81.312 113.76 81.12 114.336L80.832 114.912L80.352 114.432C80.064 113.952 79.776 113.472 79.584 112.992C79.392 113.472 79.2 113.856 79.008 114.24L78.72 114.912L78.336 114.24C78.144 113.856 77.952 113.472 77.76 113.088C77.664 113.472 77.568 113.76 77.376 114.144L77.088 114.624L76.704 114.144C76.416 113.856 76.224 113.568 76.032 113.184C75.936 113.664 75.744 114.048 75.456 114.432L75.072 114.912L74.784 114.432C74.496 114.144 74.304 113.664 74.016 113.088C73.92 112.992 73.92 112.8 73.824 112.608C73.536 113.184 73.344 113.76 72.96 114.144L72.576 114.432L72.288 114.048C72 113.664 71.808 113.184 71.616 112.704V112.8C71.328 113.376 71.04 113.952 70.752 114.432L70.272 115.008L69.984 114.336C69.792 113.952 69.696 113.472 69.6 112.896C69.312 113.376 69.024 113.856 68.64 114.24L68.256 114.72L67.968 114.144C67.872 113.76 67.776 113.28 67.68 112.896C67.296 113.664 66.912 114.24 66.336 114.624L65.856 114.912L65.76 114.432C65.568 113.952 65.472 113.472 65.472 112.896C65.088 113.76 64.704 114.432 64.128 115.104L63.552 115.68L63.456 114.912C63.264 114.24 63.264 113.568 63.264 112.8C63.168 112.896 63.168 112.992 63.072 113.088C62.592 114.144 62.016 114.912 61.344 115.488L60.672 115.872V115.104C60.672 114.624 60.672 114.144 60.768 113.568C60.192 114.816 59.616 115.584 58.752 116.544C58.656 115.776 58.56 115.008 58.56 114.24C57.984 115.104 57.312 115.872 56.544 116.64L55.872 117.216V116.352C55.872 115.296 55.872 114.144 56.064 112.992ZM60.672 108.672C60.384 110.112 59.904 111.36 59.424 112.512C59.328 112.992 59.328 113.568 59.328 114.048C59.328 114.144 59.328 114.336 59.328 114.528C59.712 113.856 60.096 113.184 60.48 112.416C60.96 111.456 61.344 110.4 61.728 109.248L61.824 109.152C61.44 108.96 61.056 108.864 60.672 108.672ZM91.488 112.608C90.624 111.072 89.76 109.44 88.992 107.712C88.608 107.904 88.224 108.096 87.936 108.288C88.416 109.632 88.896 110.976 89.568 112.224C90.24 113.376 90.912 114.432 91.68 115.488C91.68 115.2 91.68 114.912 91.68 114.624C91.776 114.048 91.68 113.376 91.488 112.608ZM89.664 107.328C90.816 109.632 91.872 111.84 93.12 113.76C94.272 115.488 95.616 116.928 97.152 117.984C97.056 117.312 96.96 116.64 96.672 115.872C96.48 115.008 96 114.048 95.52 113.088C95.04 112.128 94.464 111.264 93.888 110.304C93.12 108.96 92.352 107.616 91.584 106.272C90.912 106.656 90.336 107.04 89.664 107.328ZM62.592 109.44H62.496C62.208 110.496 61.92 111.456 61.728 112.32C61.632 112.992 61.536 113.568 61.536 114.144C61.824 113.76 62.112 113.28 62.4 112.8C62.784 111.936 63.168 110.976 63.552 109.728C63.168 109.632 62.88 109.536 62.592 109.44ZM64.32 110.016C64.224 110.688 64.128 111.456 64.032 112.128C64.032 112.704 64.032 113.28 64.128 113.76C64.704 112.896 64.992 111.648 65.376 110.304C65.472 110.304 65.376 110.304 65.472 110.304C65.088 110.208 64.704 110.112 64.32 110.016ZM66.24 110.496C66.144 111.072 66.144 111.648 66.144 112.128C66.144 112.608 66.24 113.088 66.336 113.472C66.528 113.28 66.72 112.896 66.912 112.608C67.104 112.032 67.392 111.456 67.488 110.784C67.104 110.688 66.72 110.592 66.24 110.496ZM68.352 110.88C68.352 111.36 68.352 111.84 68.352 112.224C68.448 112.608 68.448 112.896 68.544 113.088C68.736 112.896 68.928 112.512 69.024 112.224C69.216 111.84 69.312 111.456 69.408 111.072C69.12 110.976 68.736 110.976 68.352 110.88ZM70.272 111.168C70.272 111.648 70.272 112.032 70.368 112.512C70.368 112.704 70.464 112.992 70.464 113.28C70.656 112.992 70.752 112.704 70.848 112.416C71.04 112.032 71.136 111.648 71.328 111.264C70.944 111.168 70.656 111.168 70.272 111.168ZM72.288 111.264C72.288 111.648 72.288 112.032 72.384 112.32C72.384 112.608 72.576 112.896 72.672 113.184C72.768 112.896 72.96 112.704 73.056 112.416C73.152 112.032 73.248 111.744 73.344 111.36C72.96 111.36 72.576 111.36 72.288 111.264ZM74.304 111.36C74.4 111.936 74.592 112.416 74.784 112.8C74.88 113.088 74.976 113.28 75.072 113.472C75.36 112.8 75.456 112.032 75.552 111.264C75.168 111.264 74.688 111.36 74.304 111.36ZM76.416 111.264C76.416 111.744 76.512 112.224 76.608 112.512C76.704 112.8 76.8 112.992 76.896 113.088C77.088 112.8 77.088 112.512 77.184 112.224C77.28 111.84 77.28 111.552 77.28 111.168C76.992 111.168 76.704 111.168 76.416 111.264ZM78.144 111.072C78.24 111.552 78.336 112.032 78.432 112.416C78.528 112.704 78.624 112.896 78.624 113.088C78.816 112.8 78.912 112.512 78.912 112.224C79.008 111.84 79.104 111.456 79.2 110.976C79.2 110.976 79.2 110.976 79.2 110.88C78.816 110.976 78.528 110.976 78.144 111.072ZM79.968 110.784C79.968 110.88 79.968 110.88 79.968 110.976C79.968 111.456 80.064 111.936 80.16 112.32C80.256 112.608 80.448 112.992 80.64 113.28C80.736 112.896 80.832 112.416 80.928 112.032C81.024 111.552 81.12 111.072 81.12 110.496C80.736 110.592 80.352 110.688 79.968 110.784ZM82.08 110.304C82.08 110.976 82.272 111.648 82.464 112.224C82.56 112.704 82.752 113.088 83.04 113.568C83.136 112.992 83.232 112.416 83.328 111.84C83.328 111.264 83.328 110.688 83.232 110.112V110.016C82.848 110.112 82.464 110.208 82.08 110.304ZM84 109.728C84 109.824 84 109.92 84 110.016C84.192 110.784 84.384 111.648 84.672 112.416C84.96 112.992 85.248 113.568 85.632 114.144C85.728 113.568 85.728 112.992 85.632 112.32C85.536 111.456 85.44 110.592 85.248 109.632C85.248 109.536 85.152 109.44 85.152 109.344C84.768 109.536 84.384 109.632 84 109.728ZM85.92 109.056C85.92 109.152 86.016 109.248 86.016 109.344C86.304 110.496 86.592 111.552 87.072 112.416C87.36 113.184 87.744 113.952 88.128 114.624C88.128 113.664 88.032 112.8 87.936 111.84C87.744 110.784 87.456 109.632 87.168 108.576C86.784 108.768 86.304 108.96 85.92 109.056ZM102.24 109.536C102.816 109.824 103.296 110.112 103.776 110.304C104.064 110.496 104.448 110.688 104.736 110.88C103.392 108.864 102.048 106.944 100.416 105.12C99.072 104.352 97.824 103.488 96.576 102.432C96.288 102.72 95.904 103.008 95.616 103.296C96.672 104.352 97.824 105.408 98.88 106.368C100.032 107.424 101.184 108.48 102.24 109.536ZM92.256 105.888C93.024 107.136 93.888 108.576 94.656 109.92C96.288 112.896 98.016 115.872 100.32 118.368C102.048 120.288 104.352 121.632 106.656 122.976C107.424 123.456 108.192 123.936 109.056 124.416C108.768 123.552 108.48 122.688 108.192 121.728C107.424 119.136 106.752 116.64 105.312 114.432C103.392 111.648 100.896 109.344 98.4 107.04C97.248 105.984 96.096 104.928 95.04 103.776C94.08 104.544 93.216 105.216 92.256 105.888ZM97.152 101.856C98.4 102.912 99.648 103.776 100.992 104.544C102.048 105.12 103.2 105.6 104.352 105.984C104.064 105.504 103.68 104.928 103.296 104.448C102.72 103.776 102.144 103.008 101.472 102.432H101.376C100.32 101.952 99.36 101.376 98.4 100.704C98.112 100.992 97.824 101.184 97.632 101.472C97.44 101.568 97.344 101.76 97.152 101.856ZM98.88 100.128C99.84 100.704 100.8 101.28 101.76 101.664C102.624 102.048 103.488 102.336 104.352 102.624C103.872 101.952 103.296 101.28 102.624 100.704C101.856 100.032 100.992 99.36 100.032 98.688C99.744 99.168 99.264 99.648 98.88 100.128ZM100.608 98.112C101.28 98.592 102.048 98.976 102.72 99.264C103.296 99.552 103.968 99.744 104.544 99.84C104.16 99.36 103.68 98.88 103.2 98.496C102.624 98.016 101.952 97.536 101.184 97.152C100.992 97.536 100.8 97.824 100.608 98.112ZM101.664 96.48C102.336 96.768 102.912 97.056 103.488 97.152C103.968 97.344 104.352 97.44 104.736 97.44C104.544 97.248 104.16 97.056 103.872 96.768C103.392 96.48 102.72 96.192 102.144 95.808C101.952 96.096 101.856 96.288 101.664 96.48ZM102.624 95.136C103.008 95.232 103.488 95.328 103.872 95.424C104.352 95.52 104.736 95.52 105.216 95.52C104.928 95.232 104.736 94.944 104.448 94.656C104.064 94.368 103.776 94.08 103.296 93.792C103.104 94.272 102.816 94.656 102.624 95.136ZM103.776 92.928C104.16 93.12 104.448 93.216 104.832 93.216C105.12 93.312 105.408 93.312 105.696 93.312C105.504 93.12 105.312 92.928 105.12 92.832C104.832 92.64 104.448 92.448 104.064 92.352C103.968 92.544 103.872 92.736 103.776 92.928ZM104.544 91.488C104.832 91.584 105.216 91.584 105.504 91.68C105.792 91.68 106.08 91.68 106.368 91.68C106.176 91.488 106.08 91.296 105.792 91.2C105.504 90.912 105.216 90.72 104.928 90.624C104.736 90.912 104.64 91.2 104.544 91.488ZM105.216 89.664C105.6 89.664 105.984 89.76 106.272 89.76C106.656 89.76 107.04 89.76 107.424 89.664C107.136 89.472 106.944 89.28 106.656 89.088C106.368 88.896 105.984 88.704 105.696 88.512C105.504 88.896 105.408 89.28 105.216 89.664ZM105.984 87.648C106.272 87.648 106.656 87.648 106.944 87.648C107.232 87.648 107.52 87.552 107.808 87.552C107.616 87.36 107.424 87.264 107.232 87.072C106.944 86.88 106.656 86.688 106.272 86.592C106.176 86.88 106.08 87.264 105.984 87.648ZM106.464 85.632C106.944 85.728 107.328 85.728 107.712 85.728C108.096 85.728 108.384 85.728 108.768 85.632C108.48 85.44 108.192 85.248 107.904 85.056C107.52 84.864 107.136 84.768 106.752 84.576C106.656 84.96 106.56 85.344 106.464 85.632ZM106.944 83.712C107.328 83.808 107.712 83.808 108.096 83.808C108.48 83.808 108.768 83.712 109.152 83.712C108.96 83.52 108.768 83.424 108.48 83.328C108.096 83.04 107.616 82.944 107.04 82.752C107.04 83.04 106.944 83.424 106.944 83.712ZM107.232 81.888C107.712 81.984 108.288 81.984 108.768 81.984C109.152 82.08 109.632 81.984 110.016 81.984C109.728 81.696 109.344 81.504 108.96 81.312C108.384 81.12 107.904 80.928 107.328 80.832C107.232 81.216 107.232 81.504 107.232 81.888ZM107.424 79.968C108 79.968 108.576 79.968 109.248 79.968C109.728 79.968 110.208 79.872 110.688 79.872C110.304 79.68 109.824 79.488 109.44 79.392C108.768 79.2 108.096 79.008 107.424 78.912C107.424 79.296 107.424 79.584 107.424 79.968ZM107.424 78.048C108.288 78.048 109.056 78.048 109.92 77.952C110.592 77.952 111.264 77.856 111.936 77.76C110.592 77.088 109.056 76.992 107.424 76.896C107.424 77.184 107.424 77.472 107.424 77.664C107.424 77.856 107.424 77.952 107.424 78.048ZM107.424 76.128H107.616C109.44 76.032 111.168 75.936 113.472 75.36C112.8 75.168 111.936 74.976 111.072 74.976C109.92 74.784 108.672 74.784 107.328 74.88C107.328 75.264 107.424 75.648 107.424 76.128ZM107.232 74.016C107.616 74.016 107.904 73.92 108.096 73.92C110.592 73.728 112.992 73.536 115.296 72.768C115.104 72.768 114.816 72.672 114.624 72.576C113.952 72.48 113.088 72.288 112.224 72.096C110.592 72.384 108.864 72.576 107.136 72.768C107.136 73.152 107.232 73.632 107.232 74.016ZM106.944 72C109.344 71.712 111.648 71.424 113.664 70.944C115.68 70.464 117.504 69.792 119.04 68.736C118.368 68.544 117.696 68.448 116.928 68.448C115.968 68.352 115.008 68.448 113.952 68.544C112.896 68.736 111.84 68.928 110.688 69.024C109.344 69.312 107.904 69.504 106.56 69.792C106.656 70.464 106.848 71.232 106.944 72ZM104.928 64.896C106.272 64.32 107.52 63.648 108.864 63.072C109.824 62.496 110.784 62.016 111.744 61.536C112.704 61.056 113.568 60.576 114.336 60C114.912 59.52 115.392 59.04 115.872 58.464C113.952 58.464 112.032 58.944 110.112 59.712C108.096 60.48 106.08 61.632 103.968 62.784C104.352 63.456 104.64 64.224 104.928 64.896ZM106.368 69.024C107.712 68.736 109.152 68.448 110.592 68.256C113.952 67.68 117.312 67.2 120.48 65.952C122.88 64.992 124.992 63.264 127.008 61.632C127.776 61.056 128.544 60.48 129.312 59.904C128.352 59.808 127.392 59.808 126.432 59.712C123.744 59.52 121.152 59.328 118.56 59.904C115.296 60.672 112.224 62.208 109.248 63.744C107.904 64.416 106.56 65.088 105.216 65.664C105.696 66.72 105.984 67.872 106.368 69.024ZM103.584 62.016C105.408 61.056 107.136 60.096 108.864 59.424C109.344 59.04 109.728 58.656 110.016 58.176C110.208 57.984 110.4 57.696 110.496 57.408C109.824 57.6 109.152 57.888 108.48 58.176C107.616 58.56 106.752 59.04 105.888 59.52C105.12 60.288 104.256 60.96 103.392 61.728C103.488 61.824 103.584 61.92 103.584 62.016ZM80.928 44.832C81.12 43.872 81.312 43.008 81.6 42.24H81.504C81.6 41.088 81.6 39.936 81.6 38.88C81.6 38.016 81.6 37.248 81.504 36.48C81.408 36.576 81.312 36.768 81.216 36.96C80.928 37.44 80.64 38.016 80.448 38.592C80.256 40.512 79.872 42.432 79.392 44.544C79.968 44.64 80.448 44.736 80.928 44.832ZM103.008 60.96C103.968 60.288 104.736 59.52 105.504 58.752C106.176 57.984 106.752 57.312 107.232 56.544C106.464 56.832 105.696 57.216 104.928 57.6C103.968 58.176 103.008 58.752 102.144 59.52C102.432 60 102.72 60.48 103.008 60.96ZM101.664 58.752L101.76 58.656C102.912 57.6 104.16 56.448 104.736 55.296C104.256 55.488 103.68 55.776 103.104 56.064C102.336 56.544 101.568 57.024 100.8 57.6C101.088 57.984 101.376 58.368 101.664 58.752ZM100.32 56.928C101.088 56.16 101.952 55.392 102.336 54.336C101.952 54.528 101.472 54.72 101.088 55.008C100.512 55.392 100.032 55.68 99.648 56.16C99.84 56.352 100.128 56.64 100.32 56.928ZM99.072 55.488C99.36 55.104 99.648 54.816 99.936 54.432C100.128 54.048 100.32 53.664 100.416 53.28C100.032 53.376 99.744 53.568 99.36 53.76C98.976 53.952 98.592 54.24 98.304 54.528C98.496 54.912 98.784 55.2 99.072 55.488ZM97.632 53.952C97.92 53.664 98.112 53.376 98.304 52.992C98.496 52.8 98.592 52.512 98.688 52.224C98.4 52.32 98.112 52.512 97.92 52.608C97.632 52.896 97.344 53.088 97.056 53.376C97.248 53.568 97.44 53.76 97.632 53.856C97.632 53.952 97.632 53.952 97.632 53.952ZM96.384 52.8C96.672 52.32 97.056 51.744 97.248 51.168C96.96 51.36 96.768 51.456 96.576 51.552C96.288 51.744 96 51.936 95.712 52.224C96 52.416 96.192 52.608 96.384 52.8ZM94.944 51.456C95.136 50.976 95.328 50.496 95.52 50.016C95.328 50.112 95.136 50.208 95.04 50.304C94.752 50.496 94.464 50.784 94.272 50.976C94.464 51.168 94.656 51.264 94.944 51.456ZM93.408 50.304C93.504 49.728 93.696 49.152 93.696 48.576C93.504 48.768 93.312 48.864 93.12 49.056C92.928 49.248 92.736 49.44 92.544 49.728C92.832 49.92 93.12 50.112 93.408 50.304ZM91.776 49.248C91.872 48.96 91.968 48.576 92.064 48.288C92.16 48 92.16 47.712 92.256 47.424C91.968 47.616 91.776 47.808 91.584 48C91.392 48.288 91.2 48.48 91.104 48.768C91.296 48.96 91.488 49.056 91.776 49.248ZM90.24 48.384C90.528 47.712 90.72 46.944 90.72 46.176C90.528 46.368 90.24 46.56 90.048 46.752C89.76 47.136 89.472 47.424 89.184 47.712C89.568 47.904 89.952 48.096 90.24 48.384ZM88.416 47.328C88.512 46.944 88.704 46.464 88.8 46.08C88.8 45.696 88.896 45.216 88.896 44.832C88.704 45.12 88.512 45.312 88.224 45.6C87.936 45.984 87.648 46.464 87.456 46.944C87.744 47.04 88.032 47.232 88.416 47.328ZM86.688 46.56C86.976 45.696 87.36 44.736 87.456 43.68C87.168 44.064 86.88 44.448 86.592 44.832C86.304 45.216 85.92 45.696 85.728 46.176C86.016 46.368 86.304 46.464 86.688 46.56ZM84.864 45.888C85.056 45.12 85.248 44.256 85.344 43.488C85.44 42.816 85.44 42.144 85.44 41.472C84.96 42.144 84.672 42.72 84.384 43.392C84.192 43.872 84 44.352 83.904 44.832C83.808 45.024 83.808 45.312 83.712 45.504C84.096 45.6 84.48 45.792 84.864 45.888ZM82.944 45.312C83.04 45.024 83.04 44.832 83.136 44.64C83.328 43.776 83.424 42.912 83.616 42.048C83.712 41.184 83.808 40.32 83.808 39.456C83.328 40.032 82.944 40.8 82.656 41.568C82.176 42.624 81.984 43.776 81.696 45.024C82.176 45.12 82.56 45.216 82.944 45.312ZM78.624 44.352C79.104 41.952 79.584 39.648 79.776 37.344C79.872 35.328 79.776 33.408 79.2 31.584C78.816 32.16 78.528 32.832 78.24 33.504C77.952 34.368 77.664 35.328 77.472 36.384C77.376 37.44 77.184 38.592 76.992 39.648C76.8 41.184 76.608 42.624 76.416 44.16C77.184 44.16 77.856 44.256 78.624 44.352ZM71.424 44.16C71.232 42.624 70.944 41.088 70.752 39.648C70.56 38.592 70.368 37.536 70.176 36.384C69.984 35.328 69.792 34.368 69.408 33.504C69.12 32.832 68.832 32.16 68.448 31.584C67.872 33.408 67.776 35.328 67.968 37.344C68.064 39.552 68.544 41.952 69.024 44.352C69.792 44.256 70.56 44.16 71.424 44.16ZM75.648 44.064C75.744 42.528 76.032 40.992 76.224 39.552C76.704 36.096 77.184 32.736 76.896 29.376C76.704 26.784 75.744 24.288 74.784 21.792C74.496 20.928 74.112 20.064 73.824 19.2C73.536 20.064 73.152 20.928 72.768 21.792C71.808 24.288 70.848 26.784 70.656 29.376C70.368 32.736 70.944 36.096 71.52 39.456C71.712 40.992 72 42.528 72.192 44.064C72.768 44.064 73.248 44.064 73.824 44.064C74.4 44.064 75.072 44.064 75.648 44.064ZM67.68 41.472C67.392 40.224 67.104 39.072 66.624 38.112C66.336 37.44 66.048 36.864 65.664 36.384C65.472 37.152 65.376 37.92 65.28 38.784C65.28 39.84 65.28 40.896 65.376 41.952C65.856 42.912 66.144 43.872 66.336 44.832C67.008 44.736 67.584 44.64 68.256 44.544C68.064 43.488 67.872 42.432 67.68 41.472ZM65.568 45.024C65.376 44.064 65.088 43.104 64.608 42.24C64.224 41.472 63.744 40.704 63.168 40.128C63.168 40.992 63.264 41.952 63.36 42.816C63.552 43.68 63.84 44.544 64.32 45.408C64.704 45.312 65.184 45.12 65.568 45.024ZM63.456 45.696C63.072 45.024 62.784 44.448 62.304 43.872C61.92 43.392 61.536 42.912 61.056 42.624C61.056 43.2 61.152 43.776 61.344 44.352C61.44 44.928 61.728 45.6 62.016 46.176C62.496 45.984 62.976 45.792 63.456 45.696ZM61.152 46.464C60.576 45.696 60.096 44.928 59.424 44.352C59.52 44.736 59.52 45.12 59.616 45.504C59.712 45.984 59.904 46.464 60.096 46.944C60.48 46.752 60.768 46.656 61.152 46.464ZM59.328 47.328C59.136 46.944 58.848 46.656 58.56 46.272C58.368 45.984 58.08 45.696 57.792 45.504C57.792 45.888 57.888 46.272 57.984 46.656C58.08 47.04 58.272 47.424 58.464 47.712C58.752 47.616 59.04 47.424 59.328 47.328ZM57.696 48.192C57.408 47.712 57.024 47.232 56.544 46.848C56.544 47.136 56.64 47.424 56.736 47.616C56.832 47.904 56.928 48.192 57.024 48.48C57.312 48.384 57.504 48.288 57.696 48.192ZM56.256 48.96C55.872 48.576 55.488 48.096 55.104 47.808C55.2 48.48 55.392 48.96 55.68 49.344C55.872 49.248 56.064 49.152 56.256 48.96ZM54.912 49.824C54.528 49.344 54.048 48.768 53.472 48.48C53.472 48.768 53.568 49.056 53.664 49.248C53.856 49.632 54.048 49.92 54.336 50.304C54.528 50.112 54.72 50.016 54.912 49.824ZM53.568 50.88C53.28 50.592 53.088 50.4 52.8 50.208C52.704 50.112 52.512 50.016 52.416 49.92C52.416 50.112 52.512 50.304 52.512 50.592C52.608 50.88 52.704 51.168 52.8 51.36C53.088 51.168 53.28 50.976 53.568 50.88ZM52.032 52.032C51.84 51.744 51.552 51.552 51.36 51.36C51.072 51.264 50.88 51.072 50.592 50.976C50.688 51.264 50.784 51.552 50.976 51.744C51.072 52.032 51.264 52.32 51.456 52.512C51.648 52.32 51.84 52.224 52.032 52.032ZM50.784 53.184C50.496 52.896 50.208 52.704 49.92 52.512C49.632 52.416 49.44 52.224 49.056 52.128C49.248 52.416 49.344 52.704 49.536 52.992C49.728 53.28 49.92 53.568 50.112 53.856C50.304 53.568 50.592 53.376 50.784 53.184ZM49.44 54.432C49.152 54.144 48.768 53.856 48.384 53.664C48.096 53.472 47.808 53.28 47.52 53.184C47.712 53.568 47.904 53.952 48.096 54.24C48.288 54.528 48.576 54.816 48.864 55.104C49.056 54.912 49.248 54.72 49.44 54.432ZM48.288 55.776C47.808 55.488 47.328 55.104 46.848 54.816C46.368 54.624 45.984 54.432 45.504 54.24C45.696 54.624 45.984 55.008 46.272 55.296C46.656 55.776 47.04 56.256 47.52 56.736C47.808 56.352 48 56.064 48.288 55.776ZM46.944 57.408C46.272 56.928 45.6 56.448 45.024 56.064C44.448 55.68 43.968 55.488 43.488 55.2C43.776 55.776 44.16 56.352 44.544 56.832C45.024 57.408 45.6 57.888 46.272 58.368C46.464 58.08 46.752 57.696 46.944 57.408ZM45.696 59.136L45.6 59.04C43.872 58.08 42.24 57.12 40.512 56.352C40.704 56.64 40.8 56.832 40.992 57.12C41.376 57.6 41.856 58.08 42.432 58.56C43.392 59.04 44.256 59.616 45.12 60.192C45.312 59.808 45.504 59.52 45.696 59.136ZM44.64 60.864C43.488 60.096 42.336 59.424 40.992 58.752C39.84 58.272 38.688 57.792 37.344 57.408C37.536 57.6 37.632 57.888 37.824 58.08C38.208 58.464 38.592 58.944 39.072 59.328C40.704 60.096 42.336 61.056 44.064 61.92C44.256 61.632 44.448 61.248 44.64 60.864ZM43.68 62.688C41.472 61.44 39.36 60.288 37.344 59.52C35.424 58.752 33.504 58.272 31.68 58.272C32.064 58.848 32.64 59.328 33.12 59.712C33.888 60.384 34.752 60.864 35.712 61.344C36.672 61.824 37.632 62.304 38.688 62.784C40.032 63.552 41.376 64.224 42.72 64.8C43.008 64.128 43.392 63.36 43.68 62.688ZM33.6 68.352C32.448 68.16 31.488 68.16 30.528 68.256C29.856 68.256 29.088 68.352 28.416 68.544C29.952 69.6 31.776 70.272 33.792 70.752C35.904 71.232 38.304 71.52 40.704 71.808C40.8 71.04 40.992 70.368 41.184 69.6C39.648 69.312 38.208 69.12 36.768 68.832C35.712 68.64 34.656 68.544 33.6 68.352ZM40.608 72.576C38.304 72.384 36.096 72.096 34.08 71.616C33.696 71.616 33.216 71.712 32.736 71.808C32.544 71.904 32.448 71.904 32.256 72C34.56 72.864 36.576 72.864 38.592 72.96C39.264 72.96 39.84 72.96 40.512 72.96C40.512 72.864 40.512 72.672 40.608 72.576ZM42.432 65.568C40.992 64.896 39.648 64.224 38.304 63.552C35.232 62.016 32.16 60.48 28.896 59.712C26.4 59.04 23.712 59.328 21.024 59.52C20.064 59.52 19.104 59.616 18.24 59.712C18.912 60.288 19.68 60.864 20.448 61.44C22.56 63.072 24.576 64.704 26.976 65.76C30.144 67.008 33.504 67.488 36.864 68.064C38.4 68.256 39.84 68.544 41.376 68.832C41.664 67.68 42.048 66.624 42.432 65.568ZM40.224 75.84C39.36 75.936 38.4 76.032 37.44 75.936C36.96 76.032 36.48 76.128 36.096 76.32C35.904 76.416 35.712 76.512 35.52 76.512C36.288 76.8 37.056 76.992 37.824 77.088C38.592 77.184 39.36 77.28 40.224 77.28C40.224 76.8 40.224 76.32 40.224 75.84ZM40.416 73.824C39.264 73.824 38.112 73.824 36.96 73.92C36 74.016 35.04 74.208 34.176 74.4C35.136 74.784 36.096 74.976 36.96 75.072C38.112 75.168 39.168 75.168 40.32 75.072C40.32 74.688 40.32 74.208 40.416 73.824ZM46.56 108.672C47.328 107.904 48.096 107.136 48.96 106.368C50.016 105.408 51.072 104.448 52.128 103.392C51.552 102.912 50.88 102.336 50.4 101.76C48.48 103.392 46.752 104.928 45.312 106.464C43.968 108 42.816 109.632 42.24 111.36C42.912 111.168 43.488 110.784 44.064 110.496C44.928 110.016 45.696 109.344 46.56 108.672ZM49.824 101.184C49.44 100.896 49.152 100.608 48.864 100.32C47.616 101.376 46.464 102.336 45.408 103.488C44.448 104.448 43.584 105.408 42.72 106.464C43.008 106.464 43.2 106.368 43.488 106.272C44.064 106.176 44.544 105.888 45.12 105.6C46.464 104.064 48.096 102.72 49.824 101.184ZM48.384 99.648C48.192 99.456 48 99.264 47.808 98.976C47.52 99.168 47.328 99.36 47.04 99.552C46.272 100.128 45.6 100.704 45.024 101.376C44.352 102.048 43.68 102.816 43.2 103.488C43.296 103.488 43.488 103.488 43.68 103.392C44.064 103.296 44.544 103.104 44.928 102.816C45.984 101.76 47.136 100.704 48.384 99.648ZM47.232 98.304C47.04 98.016 46.752 97.632 46.464 97.344C45.792 97.824 45.12 98.4 44.544 98.976C44.064 99.456 43.584 99.936 43.2 100.416C43.872 100.32 44.448 100.032 45.12 99.744C45.6 99.456 46.08 99.168 46.56 98.88C46.752 98.688 47.04 98.496 47.232 98.304ZM45.984 96.672C45.792 96.288 45.6 95.904 45.312 95.616C45.216 95.616 45.12 95.712 45.024 95.712C44.544 96.096 44.064 96.48 43.68 96.864C43.296 97.248 42.912 97.632 42.624 98.112C43.104 98.016 43.68 97.92 44.16 97.632C44.832 97.44 45.408 97.056 45.984 96.672ZM44.928 94.848C44.736 94.656 44.544 94.368 44.448 94.08C43.968 94.368 43.584 94.656 43.2 94.944C42.912 95.232 42.624 95.52 42.432 95.808C42.72 95.808 43.104 95.712 43.488 95.616C43.872 95.424 44.256 95.328 44.64 95.04C44.736 95.04 44.832 94.944 44.928 94.848ZM43.968 93.312C43.776 92.832 43.584 92.448 43.392 91.968C42.912 92.16 42.624 92.448 42.336 92.736C42.048 93.024 41.856 93.312 41.664 93.6C42.048 93.6 42.432 93.6 42.816 93.504C43.2 93.504 43.584 93.408 43.968 93.312ZM43.008 91.104C42.816 90.816 42.72 90.528 42.528 90.144C42.24 90.336 41.952 90.528 41.664 90.816C41.472 90.912 41.28 91.104 41.184 91.296C41.472 91.296 41.76 91.296 42.048 91.296C42.336 91.296 42.624 91.2 43.008 91.104ZM42.24 89.376C42.144 88.992 41.952 88.608 41.856 88.128C41.568 88.32 41.376 88.512 41.184 88.608C40.896 88.8 40.704 89.088 40.512 89.28C40.8 89.376 41.088 89.472 41.376 89.472C41.664 89.472 41.952 89.472 42.24 89.376ZM41.568 87.264C41.472 86.976 41.376 86.592 41.28 86.208C40.992 86.4 40.8 86.496 40.512 86.688C40.32 86.784 40.032 86.976 39.84 87.168C40.224 87.264 40.512 87.36 40.8 87.36C40.992 87.36 41.28 87.36 41.568 87.264ZM41.088 85.344C40.992 85.056 40.896 84.672 40.8 84.384C40.512 84.48 40.224 84.672 39.936 84.864C39.648 84.96 39.456 85.152 39.264 85.344C39.552 85.44 39.84 85.44 40.128 85.44C40.416 85.536 40.704 85.44 41.088 85.344ZM40.704 83.424C40.608 83.136 40.608 82.848 40.512 82.464C40.224 82.656 39.84 82.752 39.552 82.944C39.264 83.136 39.072 83.232 38.784 83.424C39.072 83.52 39.36 83.52 39.648 83.52C40.032 83.52 40.32 83.52 40.704 83.424ZM40.416 81.504C40.32 81.12 40.32 80.736 40.32 80.352C39.84 80.448 39.456 80.64 38.976 80.736C38.688 80.928 38.4 81.024 38.112 81.216C38.4 81.312 38.784 81.312 39.072 81.408C39.552 81.408 39.936 81.504 40.416 81.504ZM40.224 79.392C40.224 79.008 40.224 78.624 40.224 78.144C39.552 78.24 38.976 78.336 38.4 78.528C37.92 78.624 37.44 78.72 36.96 78.912C37.44 79.104 37.92 79.2 38.4 79.296C38.976 79.392 39.648 79.392 40.224 79.392ZM96.768 54.72C90.912 48.768 82.752 45.216 73.824 45.216C64.8 45.216 56.736 48.768 50.784 54.72C44.928 60.576 41.28 68.736 41.28 77.664C41.28 86.688 44.928 94.752 50.784 100.704C56.736 106.56 64.8 110.208 73.824 110.208C82.752 110.208 90.912 106.56 96.768 100.704C102.72 94.752 106.272 86.688 106.272 77.664C106.272 68.736 102.72 60.576 96.768 54.72Z" fill="#004D71"/>
<path fill-rule="evenodd" clip-rule="evenodd" d="M73.8241 52.1279C87.8401 52.1279 99.3601 63.6479 99.3601 77.6639C99.3601 91.7759 87.8401 103.2 73.8241 103.2C59.7121 103.2 48.2881 91.7759 48.2881 77.6639C48.2881 63.6479 59.7121 52.1279 73.8241 52.1279ZM73.8241 63.2639C81.7921 63.2639 88.2241 69.6959 88.2241 77.6639C88.2241 85.6319 81.7921 92.0639 73.8241 92.0639C65.8561 92.0639 59.4241 85.6319 59.4241 77.6639C59.4241 69.6959 65.8561 63.2639 73.8241 63.2639ZM74.9761 54.7199L75.3601 54.4319L75.8401 54.2399L76.3201 54.0479L76.8001 53.9519H77.3761H77.9521H78.5281L79.2001 54.0479L79.8721 54.2399L80.4481 54.4319L81.1201 54.6239L81.7921 54.9119L82.3681 55.1999L82.9441 55.4879L83.5201 55.8719L84.0961 56.1599L84.5761 56.5439L84.9601 57.0239L85.3441 57.4079L85.7281 57.7919L85.9201 58.1759L86.1121 58.6559L86.3041 59.0399V59.4239L86.2081 59.8079L86.1121 60.1919L85.9201 60.5759L82.8481 64.7999L82.6561 64.6079L82.3681 64.4159L82.0801 64.2239L81.5041 63.9359L80.8321 63.5519L80.2561 63.2639C79.8721 63.0719 79.4881 62.9759 79.2001 62.8799C78.8161 62.6879 78.4321 62.5919 78.1441 62.4959C77.7601 62.3999 77.4721 62.3039 77.0881 62.2079L76.4161 62.0159C76.1281 62.0159 75.8401 61.9199 75.5521 61.9199L74.9761 61.8239H74.6881H74.4961L74.3041 61.9199H74.1121L74.0161 57.1199L74.1121 56.4479L74.2081 55.9679L74.4001 55.4879L74.6881 55.0079L74.9761 54.7199ZM88.3201 59.8079H88.7041L89.1841 59.9039L89.6641 59.9999L90.1441 60.2879L90.6241 60.5759L91.1041 60.8639L91.5841 61.3439L92.0641 61.7279L92.4481 62.2079L92.8321 62.7839L93.3121 63.3599L93.6001 63.9359L93.9841 64.5119L94.2721 65.0879L94.4641 65.7599L94.7521 66.3359L94.8481 66.9119L95.0401 67.4879L95.1361 68.0639V68.5439L95.0401 69.1199L94.9441 69.5039L94.8481 69.8879L94.6561 70.2719L94.3681 70.5599L94.0801 70.7519L93.6961 70.9439L88.7041 72.5759L88.6081 72.2879L88.5121 71.9999L88.3201 71.3279L88.0321 70.7519L87.6481 70.0799L87.2641 69.4079C87.0721 69.1199 86.8801 68.8319 86.6881 68.5439C86.4961 68.2559 86.2081 67.8719 86.0161 67.5839C85.8241 67.2959 85.5361 67.1039 85.3441 66.8159L84.8641 66.3359L84.4801 65.9519C84.0961 65.5679 83.8081 65.2799 83.3281 65.0879L86.1121 61.1519L86.4961 60.6719L86.9761 60.2879L87.3601 60.0959L87.8401 59.9039L88.3201 59.8079ZM96.0001 71.7119L96.3841 71.9999L96.7681 72.3839L97.0561 72.7679L97.2481 73.2479L97.5361 73.7279L97.6321 74.3039L97.8241 74.8799L97.9201 75.5519L98.0161 76.1279V76.7999V77.4719L97.9201 78.2399L97.8241 78.9119L97.7281 79.4879L97.6321 80.1599L97.4401 80.8319L97.1521 81.4079L96.9601 81.8879L96.6721 82.3679L96.3841 82.8479L96.0961 83.2319L95.7121 83.5199L95.4241 83.8079L95.0401 83.9039L94.6561 83.9999H94.2721L93.7921 83.9039L88.8961 82.2719L88.9921 81.9839L89.0881 81.6959L89.1841 81.4079L89.2801 80.7359L89.3761 80.0639L89.4721 79.2959C89.5681 78.9119 89.5681 78.5279 89.5681 78.2399C89.5681 77.8559 89.5681 77.4719 89.5681 77.0879C89.5681 76.7039 89.5681 76.3199 89.5681 76.0319L89.4721 75.3599L89.3761 74.6879C89.2801 74.2079 89.1841 73.6319 88.8961 73.1519L93.4081 71.5199L94.0801 71.4239L94.6561 71.3279L95.1361 71.4239L95.6161 71.5199L96.0001 71.7119ZM95.2321 85.9199L95.4241 86.3999L95.5201 86.8799V87.3599L95.4241 87.8399L95.3281 88.4159L95.1361 88.9919L94.8481 89.5679L94.5601 90.0479L94.2721 90.6239L93.8881 91.1999L93.5041 91.7759L93.0241 92.2559L92.5441 92.7359L92.0641 93.2159L91.5841 93.6959L91.1041 94.0799L90.5281 94.3679L90.0481 94.7519L89.5681 94.9439L89.0881 95.1359L88.6081 95.2319L88.1281 95.3279H87.7441L87.3601 95.2319L86.9761 95.0399L86.6881 94.8479L86.3041 94.4639L83.3281 90.2399L83.5201 90.1439L83.8081 89.9519L84.2881 89.4719L84.7681 88.9919L85.3441 88.5119C85.5361 88.2239 85.8241 87.9359 86.0161 87.6479C86.3041 87.3599 86.4961 87.0719 86.6881 86.7839C86.9761 86.4959 87.1681 86.2079 87.3601 85.9199C87.5521 85.6319 87.7441 85.3439 87.9361 85.0559L88.2241 84.4799C88.4161 83.9999 88.6081 83.4239 88.7041 82.8479L93.3121 84.2879L93.8881 84.4799L94.3681 84.7679L94.7521 85.1519L95.0401 85.5359L95.2321 85.9199ZM86.3041 96.9599L86.2081 97.4399L86.0161 97.8239L85.7281 98.2079L85.3441 98.5919L84.8641 98.9759L84.3841 99.3599L83.9041 99.6479L83.3281 99.9359L82.7521 100.224L82.0801 100.416L81.4081 100.608L80.8321 100.8L80.1601 100.896L79.4881 100.992L78.8161 101.088H78.1441H77.5681L76.8961 100.992L76.4161 100.896L75.8401 100.8L75.4561 100.608L75.0721 100.32L74.6881 100.128L74.4001 99.8399L74.2081 99.4559L74.1121 99.0719V98.5919V93.4079H74.4001H74.6881H75.3601L76.0321 93.3119L76.8001 93.2159C77.0881 93.1199 77.4721 93.0239 77.8561 92.9279C78.2401 92.8319 78.5281 92.7359 78.9121 92.6399C79.2961 92.5439 79.5841 92.4479 79.9681 92.2559C80.2561 92.1599 80.5441 92.0639 80.9281 91.8719L81.5041 91.5839C81.9841 91.3919 82.4641 91.1039 82.8481 90.6239L85.7281 94.4639L86.0161 95.0399L86.3041 95.5199L86.4001 95.9999V96.4799L86.3041 96.9599ZM72.5761 100.608L72.2881 100.896L71.8081 101.088L71.3281 101.28L70.8481 101.376L70.2721 101.472H69.6961L69.0241 101.376L68.4481 101.28L67.7761 101.184L67.1041 100.992L66.5281 100.704L65.8561 100.512L65.2801 100.224L64.7041 99.8399L64.1281 99.5519L63.5521 99.1679L63.0721 98.7839L62.6881 98.3999L62.2081 98.0159L61.9201 97.5359L61.6321 97.1519L61.4401 96.7679L61.3441 96.3839V95.9039V95.5199L61.5361 95.2319L61.7281 94.8479L64.8001 90.6239L64.9921 90.7199L65.2801 90.9119L65.5681 91.1039L66.1441 91.4879L66.7201 91.7759L67.3921 92.1599L68.0641 92.4479C68.4481 92.5439 68.8321 92.6399 69.1201 92.8319C69.5041 92.9279 69.8881 93.0239 70.1761 93.1199L70.8481 93.3119C71.2321 93.3119 71.5201 93.4079 71.8081 93.4079C72.3841 93.5039 72.9601 93.5999 73.4401 93.5039L73.5361 98.2079V98.8799L73.4401 99.4559L73.1521 99.9359L72.9601 100.32L72.5761 100.608ZM59.3281 95.5199H58.8481H58.4641L57.9841 95.3279L57.5041 95.1359L57.0241 94.8479L56.5441 94.4639L56.0641 94.0799L55.5841 93.5999L55.2001 93.1199L54.7201 92.6399L54.3361 92.0639L53.9521 91.4879L53.6641 90.9119L53.3761 90.2399L53.0881 89.6639L52.8961 89.0879L52.7041 88.4159L52.6081 87.8399L52.5121 87.2639V86.7839V86.3039L52.6081 85.8239L52.8001 85.4399L52.9921 85.1519L53.2801 84.8639L53.5681 84.5759L53.9521 84.3839L58.9441 82.8479L59.0401 83.0399L59.1361 83.4239L59.3281 83.9999L59.6161 84.6719L60.0001 85.2479L60.3841 85.9199C60.5761 86.2079 60.7681 86.5919 60.9601 86.8799C61.1521 87.1679 61.3441 87.4559 61.6321 87.7439L62.0161 88.3199C62.3041 88.6079 62.4961 88.7999 62.6881 89.0879L63.1681 89.4719L63.5521 89.8559L63.7441 89.9519L63.9361 90.0479L64.1281 90.2399H64.2241L61.5361 94.1759L61.1521 94.6559L60.6721 95.0399L60.2881 95.3279L59.8081 95.5199H59.3281ZM51.6481 83.6159L51.2641 83.3279L50.8801 83.0399L50.5921 82.6559L50.3041 82.1759L50.1121 81.6959L49.9201 81.1199L49.8241 80.4479L49.7281 79.8719L49.6321 79.1999V78.5279V77.8559L49.7281 77.1839V76.5119L49.9201 75.8399L50.0161 75.1679L50.2081 74.5919L50.4001 74.0159L50.6881 73.4399L50.9761 72.9599L51.2641 72.4799L51.5521 72.1919L51.8401 71.8079L52.2241 71.6159L52.6081 71.4239H52.9921H53.3761L53.7601 71.5199L58.7521 73.0559L58.6561 73.3439L58.5601 73.6319L58.4641 73.9199L58.3681 74.5919L58.1761 75.3599L58.0801 76.0319C58.0801 76.4159 58.0801 76.7999 58.0801 77.1839L57.9841 77.9519V78.6239C58.0801 79.0079 58.0801 79.3919 58.0801 79.6799L58.1761 80.3519L58.2721 80.9279L58.3681 81.5039L58.4641 81.6959L58.5601 81.8879L58.6561 82.0799V82.2719L54.1441 83.8079L53.5681 83.9999H52.9921H52.5121L52.0321 83.8079L51.6481 83.6159ZM52.2241 69.0239L52.1281 68.5439V68.0639L52.2241 67.4879L52.3201 67.0079L52.5121 66.4319L52.7041 65.8559L52.9921 65.2799L53.3761 64.7039L53.7601 64.1279L54.1441 63.6479L54.6241 63.0719L55.0081 62.5919L55.5841 62.1119L56.0641 61.7279L56.5441 61.3439L57.0241 60.9599L57.6001 60.6719L58.0801 60.3839L58.5601 60.1919L59.0401 60.0959H59.5201H59.9041L60.2881 60.1919L60.6721 60.2879L60.9601 60.5759L61.2481 60.8639L64.3201 65.0879L64.1281 65.2799L63.8401 65.4719L63.6481 65.6639L63.0721 66.1439L62.5921 66.6239L62.1121 67.1999C61.9201 67.4879 61.7281 67.7759 61.4401 68.0639C61.2481 68.3519 61.0561 68.6399 60.8641 68.9279C60.6721 69.3119 60.4801 69.5999 60.2881 69.8879C60.0961 70.1759 60.0001 70.4639 59.8081 70.7519C59.6161 70.9439 59.5201 71.2319 59.4241 71.5199L59.2321 71.9999C59.1361 72.1919 59.0401 72.3839 58.9441 72.5759L54.3361 71.1359L53.7601 70.8479L53.2801 70.5599L52.8961 70.2719L52.6081 69.8879L52.3201 69.4079L52.2241 69.0239ZM61.2481 58.3679L61.4401 57.9839L61.6321 57.5039L61.9201 57.1199L62.3041 56.7359L62.6881 56.3519L63.1681 56.0639L63.7441 55.6799L64.3201 55.3919L64.8961 55.1999L65.5681 54.9119L66.1441 54.7199L66.8161 54.6239L67.4881 54.4319L68.1601 54.3359H68.8321L69.5041 54.2399L70.0801 54.3359H70.6561L71.2321 54.4319L71.7121 54.6239L72.1921 54.8159L72.5761 55.0079L72.9601 55.2959L73.1521 55.5839L73.3441 55.8719L73.5361 56.2559V56.7359V61.9199H73.2481H72.9601L72.2881 62.0159H71.6161L70.8481 62.2079C70.4641 62.2079 70.1761 62.3039 69.7921 62.3999C69.4081 62.4959 69.0241 62.5919 68.7361 62.6879C68.3521 62.8799 67.9681 62.9759 67.6801 63.0719L67.0081 63.3599C66.7201 63.4559 66.4321 63.6479 66.1441 63.7439C65.6641 64.0319 65.1841 64.3199 64.8001 64.7039L61.9201 60.9599L61.6321 60.3839L61.3441 59.8079L61.2481 59.3279V58.8479V58.3679Z" fill="#004D71"/>
<path d="M55.6799 65.5679L57.1199 63.2639L57.4079 62.7839L57.8879 63.1679C58.1759 63.3599 58.5599 63.6479 58.8479 63.8399C59.4239 64.3199 59.9039 64.7039 60.4799 65.1839C60.7679 65.4719 60.8639 66.1439 60.7679 66.7199C60.7679 67.2959 60.5759 67.8719 60.1919 68.2559C59.8079 68.6399 59.3279 69.1199 58.7519 69.3119C58.1759 69.5999 57.5039 69.6959 56.7359 69.5039L57.1199 68.4479C57.5039 68.6399 57.9839 68.5439 58.2719 68.3519C58.7519 68.1599 59.1359 67.8719 59.4239 67.4879C59.6159 67.2959 59.7119 66.9119 59.7119 66.6239C59.8079 66.2399 59.8079 66.0479 59.8079 65.9519C59.2319 65.4719 58.7519 65.0879 58.1759 64.7039C57.9839 64.6079 57.8879 64.5119 57.6959 64.3199L56.6399 66.1439L55.6799 65.5679Z" fill="#004D71"/>
<path d="M53.0879 80.064C53.9519 80.064 54.8159 80.064 55.6799 79.968C55.5839 79.68 55.5839 79.392 55.5839 79.2C55.5839 78.336 55.4879 77.472 55.4879 76.608C55.4879 76.416 55.1999 76.032 54.9119 75.744C54.7199 75.552 54.3359 75.36 54.1439 75.36C53.8559 75.36 53.5679 75.456 53.3759 75.648C53.0879 75.936 52.8959 76.32 52.8959 76.704C52.7039 77.472 52.7039 78.048 52.7039 78.624C52.7999 79.104 52.8959 79.584 53.0879 80.064ZM55.7759 81.024C54.7199 81.12 53.6639 81.216 52.6079 81.12L52.3199 81.024L52.2239 80.736C51.9359 80.064 51.7439 79.488 51.6479 78.72C51.6479 78.048 51.6479 77.376 51.8399 76.512C51.9359 75.936 52.2239 75.36 52.6079 74.976C52.9919 74.496 53.5679 74.304 54.1439 74.304C54.7199 74.304 55.1999 74.592 55.6799 74.976C56.1599 75.456 56.5439 76.032 56.5439 76.608C56.6399 77.376 56.6399 78.24 56.6399 79.104C56.6399 79.584 56.7359 79.968 56.7359 80.448V80.928H56.2559C55.4879 81.024 55.8719 81.024 55.7759 81.024Z" fill="#004D71"/>
<path d="M64.896 62.496C64.896 62.304 64.704 62.208 64.608 62.016C64.32 61.632 64.032 61.248 63.84 60.672C63.552 59.808 63.648 58.944 64.128 58.272C64.512 57.504 65.28 57.024 66.24 56.64C66.432 56.64 66.624 56.544 66.816 56.448C67.68 56.256 68.448 56.256 69.12 56.448C69.888 56.64 70.464 57.12 70.752 57.984C70.752 58.08 70.752 58.176 70.752 58.176C70.944 58.656 70.944 59.232 71.04 59.808C71.04 60 71.04 60.192 71.04 60.384L69.984 60.48C69.984 60.288 69.984 60.096 69.984 59.808C69.888 59.52 69.888 59.232 69.888 58.944C69.024 59.136 68.16 59.328 67.392 59.616C66.528 59.904 65.76 60.288 65.088 60.768C65.184 60.96 65.376 61.152 65.472 61.44C65.568 61.536 65.664 61.728 65.856 61.92L64.896 62.496ZM64.992 58.848C64.896 59.136 64.8 59.424 64.8 59.712C65.472 59.328 66.24 58.944 67.008 58.656C67.776 58.368 68.64 58.08 69.504 57.984C69.312 57.696 69.12 57.504 68.832 57.408C68.352 57.312 67.776 57.312 67.104 57.504C66.912 57.6 66.72 57.6 66.528 57.696C65.856 57.888 65.28 58.272 64.992 58.848Z" fill="#004D71"/>
<path d="M83.5201 58.272C83.6161 59.04 83.6161 59.712 83.5201 60.384C83.3281 60.96 83.0401 61.632 82.6561 62.208L81.7921 61.632C81.9841 61.248 82.1761 60.864 82.3681 60.48C81.6001 60 80.9281 59.712 80.1601 59.52C79.3921 59.328 78.6241 59.232 77.8561 59.136C77.7601 59.52 77.7601 59.904 77.7601 60.288L76.7041 60.384C76.7041 59.712 76.8001 59.04 76.9921 58.368C77.2801 57.696 77.6641 57.12 78.1441 56.448L78.9121 57.216C78.7201 57.504 78.4321 57.792 78.2401 58.08C79.0081 58.176 79.6801 58.272 80.4481 58.464C81.1201 58.656 81.8881 58.944 82.5601 59.328C82.5601 59.04 82.5601 58.752 82.4641 58.464L83.5201 58.272Z" fill="#004D71"/>
<path d="M85.824 65.184C86.016 64.512 86.304 63.936 86.784 63.456C87.264 62.976 87.84 62.688 88.512 62.496C88.992 62.4 89.568 62.688 90.048 62.976C90.528 63.36 90.912 63.936 91.008 64.416C91.008 64.704 91.008 64.992 90.912 65.28C91.104 65.28 91.392 65.28 91.584 65.376C91.584 65.472 91.584 65.472 91.68 65.472C92.16 65.76 92.448 66.144 92.544 66.624C92.736 67.104 92.736 67.68 92.448 68.064C92.448 68.16 92.448 68.16 92.448 68.16C92.064 68.736 91.584 69.216 91.008 69.504C90.336 69.792 89.568 69.888 88.992 69.792L89.088 68.736C89.568 68.832 90.048 68.736 90.528 68.544C90.912 68.352 91.296 68.064 91.488 67.68C91.584 67.392 91.584 67.2 91.584 66.912C91.488 66.72 91.392 66.528 91.104 66.432V66.336C91.008 66.336 90.816 66.336 90.72 66.24C90.432 66.24 90.24 66.24 90.048 66.336L89.088 66.432L89.472 65.568C89.568 65.376 89.664 65.28 89.664 65.184C89.856 64.992 89.952 64.704 89.952 64.608C89.856 64.416 89.664 64.032 89.376 63.84C89.088 63.648 88.896 63.552 88.608 63.552C88.224 63.648 87.84 63.84 87.552 64.224C87.168 64.512 86.976 64.992 86.88 65.376L85.824 65.184Z" fill="#004D71"/>
<path d="M91.104 74.4001H91.2C92.16 74.2081 93.504 73.9201 94.464 74.4961C94.944 74.8801 95.424 75.3601 95.712 75.8401C96 76.4161 96.192 76.9921 96.192 77.6641C96.192 78.3361 96 79.0081 95.712 79.5841C95.52 80.0641 95.136 80.5441 94.56 80.8321C93.696 81.4081 92.448 81.1201 91.488 80.9281C91.392 80.9281 91.296 80.9281 91.104 80.8321L91.392 79.7761C91.392 79.7761 91.584 79.8721 91.68 79.8721C91.872 79.8721 92.064 79.9681 92.256 79.9681C92.352 79.2001 92.448 78.4321 92.448 77.6641C92.448 76.8961 92.448 76.0321 92.352 75.2641C92.064 75.2641 91.776 75.3601 91.392 75.4561H91.296L91.104 74.4001ZM93.888 75.4561C93.792 75.3601 93.6 75.3601 93.504 75.2641C93.504 76.1281 93.6 76.8961 93.504 77.6641C93.504 78.5281 93.408 79.2961 93.312 80.1601C93.6 80.1601 93.792 80.0641 93.984 79.9681C94.368 79.7761 94.656 79.3921 94.848 79.1041C95.04 78.6241 95.136 78.1441 95.136 77.6641C95.136 77.1841 95.04 76.8001 94.752 76.4161C94.56 76.0321 94.272 75.6481 93.888 75.4561Z" fill="#004D71"/>
<path d="M88.9919 85.7279C89.6639 86.0159 90.1439 86.3039 90.7199 86.5919C91.1999 86.8799 91.7759 87.1679 92.4479 87.5519L92.8319 87.8399L92.6399 88.3199L92.3519 88.7039C91.3919 90.4319 89.6639 93.5039 87.3599 92.2559C85.6319 91.3919 85.9199 89.9519 86.6879 88.5119C86.9759 87.9359 87.3599 87.3599 87.7439 86.7839C87.9359 86.4959 88.2239 86.1119 88.3199 85.9199L88.6079 85.4399L88.9919 85.7279ZM90.2399 87.5519C89.7599 87.3599 89.3759 87.1679 88.9919 86.8799C88.8959 87.0719 88.7039 87.2639 88.6079 87.4559C88.3199 87.9359 87.9359 88.5119 87.6479 88.9919C87.1679 89.9519 86.8799 90.9119 87.8399 91.2959C89.2799 92.0639 90.6239 89.6639 91.3919 88.2239C91.0079 88.0319 90.6239 87.7439 90.2399 87.5519Z" fill="#004D71"/>
<path d="M77.6639 94.656C77.6639 95.136 77.6639 95.52 77.6639 96C78.4319 95.904 79.1999 95.712 79.9679 95.424C80.7359 95.232 81.5999 94.848 82.4639 94.464C82.2719 94.08 81.9839 93.792 81.7919 93.504L82.5599 92.832C83.0399 93.312 83.5199 93.984 83.7119 94.752C83.9039 95.232 83.9039 95.808 83.8079 96.384C83.7119 96.864 83.5199 97.44 82.9439 97.92C82.5599 98.208 82.0799 98.496 81.3119 98.784C79.1039 99.456 77.9519 98.976 77.2799 97.92C76.6079 96.96 76.6079 95.712 76.6079 94.656H77.6639ZM77.9519 97.056C78.0479 97.152 78.0479 97.248 78.1439 97.344C78.5279 97.92 79.3919 98.304 81.0239 97.728C81.5999 97.536 81.9839 97.344 82.2719 97.056C82.5599 96.768 82.7519 96.48 82.8479 96.192C82.8479 95.904 82.8479 95.712 82.7519 95.424C81.9839 95.904 81.1199 96.192 80.2559 96.48C79.4879 96.768 78.7199 96.864 77.9519 97.056Z" fill="#004D71"/>
<path d="M65.6641 96.864C65.7601 96.864 65.8561 96.96 65.9521 97.056C66.4321 97.632 67.1041 97.92 67.6801 97.92C68.2561 98.016 68.8321 97.824 69.3121 97.344C69.4081 97.248 69.5041 97.248 69.5041 97.152C69.6001 97.152 69.6001 97.056 69.6961 96.96C69.7921 96.768 69.7921 96.48 69.7921 96.192C69.6961 95.808 69.5041 95.52 69.1201 95.136C68.9281 94.944 68.7361 94.752 68.4481 94.656C67.6801 94.176 67.1041 93.984 66.6241 94.08C66.1441 94.176 65.7601 94.464 65.3761 94.944C65.7601 95.136 66.0481 95.328 66.4321 95.52C66.9121 95.712 67.3921 95.904 67.9681 96L67.7761 97.056C67.1041 96.864 66.5281 96.672 65.9521 96.48C65.3761 96.192 64.8001 95.808 64.2241 95.424L63.8401 95.136L64.1281 94.656C64.8961 93.792 65.5681 93.216 66.3361 93.12C67.2001 92.928 67.9681 93.12 69.0241 93.696C69.3121 93.888 69.6001 94.176 69.8881 94.368C70.3681 94.848 70.6561 95.424 70.8481 96C70.9441 96.576 70.8481 97.056 70.5601 97.536C70.4641 97.728 70.3681 97.824 70.2721 97.92C70.1761 98.016 70.1761 98.016 70.0801 98.112C69.3121 98.784 68.4481 99.072 67.5841 98.976C66.7201 98.976 65.8561 98.496 65.1841 97.824C65.0881 97.728 64.9921 97.632 64.8961 97.536L65.6641 96.864Z" fill="#004D71"/>
<path d="M58.4641 86.3999C58.0801 86.5919 57.6961 86.7839 57.3121 86.9759C57.6961 87.7439 58.0801 88.5119 58.5601 89.1839C59.0401 89.8559 59.6161 90.4319 60.1921 91.0079C60.4801 90.7199 60.6721 90.4319 60.9601 90.0479L61.8241 90.6239C61.3441 91.4879 60.7681 92.0639 60.1921 92.4479C59.7121 92.8319 59.1361 93.0239 58.6561 93.0239C58.0801 93.0239 57.6001 92.9279 57.0241 92.5439C56.5441 92.2559 56.0641 91.7759 55.5841 91.0079C55.3921 90.7199 55.2001 90.5279 55.1041 90.2399C54.8161 89.4719 54.8161 88.7039 55.0081 88.0319C55.2961 87.3599 55.8721 86.6879 56.6401 86.2079C57.0241 85.9199 57.5041 85.6319 58.0801 85.4399L58.4641 86.3999ZM56.4481 87.6479C56.2561 87.9359 56.1601 88.1279 56.0641 88.4159C55.8721 88.8959 55.8721 89.3759 56.0641 89.8559C56.1601 90.0479 56.2561 90.2399 56.4481 90.4319C56.8321 91.0079 57.2161 91.3919 57.6001 91.6799C57.9841 91.8719 58.2721 91.9679 58.5601 91.9679C58.8481 91.9679 59.1361 91.8719 59.4241 91.6799C58.7521 91.1039 58.1761 90.4319 57.6961 89.7599C57.2161 89.0879 56.8321 88.4159 56.4481 87.6479Z" fill="#004D71"/>
</svg>
